<svg xmlns="http://www.w3.org/2000/svg" width="261.546" height="203.742" viewBox="0 0 261.546 203.742"><g fill="none" fill-rule="evenodd" transform="translate(.752 .75)"><g fill="#1D1D1B" transform="translate(58 13)"><path d="M49.7224282 160.309934C53.9080895 161.209786 57.6286774 161.591541 60.4738328 161.727882 63.8114189 161.91876 65.8632137 161.782419 65.8632137 161.782419L66.1641436 161.782419C66.1641436 161.782419 68.2159383 161.91876 71.5535245 161.727882 74.3986799 161.591541 78.146625 161.209786 82.3322863 160.282666 85.4783716 159.628228 88.8980296 158.646572 92.3450448 157.255892 93.302549 156.874137 94.2600532 156.410577 95.2175574 155.892481 99.4032187 153.683754 103.370022 150.438834 106.762323 146.975769 112.124346 141.603927 116.173221 135.741257 117.842014 132.605411 119.921166 128.733322 122.246534 121.452704 123.723826 116.353545 124.3804 114.090281 124.872831 112.236042 125.119046 111.281654 125.28319 110.627216 125.447334 109.94551 125.638834 109.291073 126.240694 107.164151 127.034055 105.17357 128.593419 104.600937 128.921706 104.491864 129.249993 104.410059 129.632995 104.437327 132.505508 104.573669 131.958362 110.709021 131.958362 110.709021 131.958362 110.709021 131.548003 116.653495 127.690629 126.061035 127.663272 126.061035 127.663272 126.088303 127.663272 126.088303 125.201118 132.141851 121.316387 139.640614 115.18836 147.902889 106.78968 159.246473 90.9224671 166.581627 73.577962 167.754161 68.079152 168.108648 62.0331968 168.054112 58.4493953 167.754161 41.1048902 166.199872 25.2103201 159.246473 16.8389975 147.902889 1.16328549 126.742741.04163769 110.709021.04163769 110.709021.04163769 110.709021-.50550758 104.573669 2.36700509 104.437327 2.77736404 104.410059 3.16036573 104.491864 3.48865289 104.628205 4.96594512 105.228106 5.75930576 107.136882 6.3338083 109.182L6.3338083 109.291073C6.5526664 109.94551 6.71680999 110.627216 6.88095357 111.281654 7.12716894 112.236042 7.61959968 114.090281 8.30353127 116.380813 9.7808235 121.479972 12.1335482 128.733322 14.1853429 132.605411 15.6899924 135.441307 19.0822931 140.431393 23.6235988 145.312407 27.3989012 149.348105 31.9402069 153.301999 36.8097998 155.892481 37.7399468 156.410577 38.7248083 156.874137 39.6823125 157.255892 43.1293277 158.646572 46.5489856 159.628228 49.7224282 160.309934M129.222636 89.2216541C129.27735 93.0664747 129.167921 96.8567589 128.894349 100.565238 128.155703 100.865189 127.28027 101.219676 126.350123 101.601431 126.67841 97.565733 126.815197 93.44823 126.760482 89.2489223 127.717986 89.2216541 128.538704 89.2216541 129.222636 89.2216541"/><path d="M126.760482,89.2489223 C126.733125,87.094732 126.651053,84.9132735 126.514267,82.7318149 C126.350123,80.386747 126.131265,78.0689473 125.88505,75.7784158 C126.897269,76.2147076 127.772701,76.5691946 128.456633,76.8691451 C128.675491,78.8051896 128.839634,80.7685022 128.976421,82.7318149 C129.113207,84.9132735 129.195279,87.0674638 129.222636,89.2216541 C128.538704,89.2216541 127.717986,89.2216541 126.760482,89.2489223"/><path d="M126.350123 63.4259069C127.225556 67.7070193 127.964202 72.2062775 128.456633 76.8691451 127.772701 76.5691946 126.897269 76.2147076 125.88505 75.7784158L125.857693 75.7784158C125.255833 70.4883789 124.353043 65.4164878 123.313467 60.6718155 124.489829 61.7080083 125.502048 62.6351282 126.322766 63.3986387L126.350123 63.4259069ZM128.593419 104.600937C127.034055 105.17357 126.240694 107.164151 125.638834 109.291073 125.939764 106.782395 126.18598 104.219181 126.350123 101.601431 127.28027 101.219676 128.155703 100.865189 128.894349 100.565238 128.812277 101.92865 128.702848 103.264793 128.593419 104.600937"/><path d="M123.313467,60.6718155 C120.933385,50.0099369 117.7873,40.956884 115.270432,34.6306542 C117.048654,36.484894 118.498589,38.1482561 119.565522,39.4571312 C121.890889,45.8651657 124.435115,54.1001717 126.322766,63.3986387 C125.502048,62.6351282 124.489829,61.7080083 123.313467,60.6718155"/><path d="M115.270432,34.6306542 C113.054493,29.067935 111.330986,25.659406 111.057413,25.1140414 C112.206418,26.3138436 113.300709,27.5136458 114.094069,28.3862292 C114.367642,28.6861797 114.832715,28.358961 114.668572,28.0044739 L114.860073,27.9226692 C114.969502,28.1135469 115.051573,28.3316927 115.161003,28.5498386 C115.516647,29.3951538 115.872291,30.1586642 116.145864,30.7858336 C116.255293,31.0585159 116.392079,31.3584664 116.528866,31.658417 C117.404298,33.7853391 118.471231,36.4303575 119.565522,39.4571312 C118.498589,38.1482561 117.048654,36.484894 115.270432,34.6306542"/><path d="M106.297249 20.2330279C104.053954 18.2151788 99.950364 15.1338686 99.5400051 14.8066498L99.5400051 14.3976263 99.5947196 12.3797772C99.5947196 12.3797772 109.716907 20.2602961 112.096989 23.5052157 113.355423 25.1958461 114.176141 26.83194 114.668572 28.0044739 114.832715 28.358961 114.367642 28.6861797 114.094069 28.3862292 113.300709 27.5136458 112.206418 26.3138436 111.057413 25.1140414L111.057413 25.0867731C109.251834 23.1507287 107.336825 21.187416 106.297249 20.2330279M55.823098 5.56271926C55.1938809 5.64452396 54.8108792 5.26276871 54.5920211 4.96281817 54.4278775 4.71740408 54.1816622 4.58106292 53.8807323 4.63559939 52.1298674 4.93554993 46.165984 6.0262792 42.3633243 7.38969079 37.8493759 8.99851646 32.6514958 11.5889985 32.6514958 11.5889985L32.5147095 11.5889985 32.5420667 9.54388109 37.2201588 5.39910987 52.2666537.627169329 52.3760828.65443756C52.3760828.927119877 52.5949409 1.17253396 52.8958708 1.1179975 54.2363767.872583414 55.8504552.681705792 57.4918911.545364634 58.7229679.436291707 59.981402.32721878 61.1304071.245414085 62.6076993.16360939 63.920848.0818046951 64.7689231.0545364634 65.4528547.0272682317 65.8632137 0 65.8632137 0L66.1641436 0C66.1641436 0 66.5745025.0272682317 67.2310769.0272682317 68.079152.0818046951 69.3923007.16360939 70.8695929.245414085 72.018598.32721878 73.2770321.436291707 74.5354662.545364634 76.1495448.708974024 77.7636233.899851646 79.1041292 1.1179975 79.4050591 1.17253396 79.6512745.927119877 79.6512745.65443756L79.7607035.627169329 94.8071985 5.39910987 99.4852905 9.54388109 99.5126478 11.5889985 99.3485042 11.5889985C99.3485042 11.5889985 94.1779814 8.99851646 89.6640329 7.38969079 85.834016 6.0262792 79.8701326 4.93554993 78.1192677 4.63559939 77.8456951 4.58106292 77.5721225 4.71740408 77.4079789 4.96281817 77.216478 5.26276871 76.8334763 5.64452396 76.2042593 5.56271926 75.1099687 5.45364634 71.3073091 5.09915932 68.7083691 4.9082817 67.5320068 4.82647701 66.1641436 4.79920878 66.1641436 4.79920878L65.8358564 4.79920878C65.8358564 4.79920878 64.4679932 4.82647701 63.2916309 4.9082817 60.7200481 5.09915932 56.9173885 5.45364634 55.823098 5.56271926"/><path d="M54.5920211,4.96281817 C54.8108792,5.26276871 55.1938809,5.64452396 55.823098,5.56271926 C56.9173885,5.45364634 60.7200481,5.09915932 63.2916309,4.9082817 C64.4679932,4.82647701 65.8358564,4.79920878 65.8358564,4.79920878 L66.1641436,4.79920878 C66.1641436,4.79920878 67.5320068,4.82647701 68.7083691,4.9082817 C71.3073091,5.09915932 75.1099687,5.45364634 76.2042593,5.56271926 C76.8334763,5.64452396 77.216478,5.26276871 77.4079789,4.96281817 C77.5721225,4.71740408 77.8456951,4.58106292 78.1192677,4.63559939 C79.8701326,4.93554993 85.834016,6.0262792 89.6640329,7.38969079 C94.1779814,8.99851646 99.3485042,11.5889985 99.3485042,11.5889985 L99.5126478,11.5889985 L99.5400051,14.3976263 L99.5126478,14.8066498 L99.5400051,14.8066498 L99.5400051,15.9246473 C99.5400051,15.9246473 99.1570034,15.6792332 98.391,15.2429415 L98.3636427,15.2156733 C96.831636,14.3703581 93.7129079,12.8160689 88.8706723,11.179975 C88.5970997,11.0709021 88.2961698,10.9890974 88.0225971,10.9072927 C84.6576537,9.81656341 81.2927103,9.08032115 78.2560541,8.58949298 C75.0552542,8.04412835 72.2100988,7.79871426 70.1035895,7.6623731 C67.6687931,7.52603194 66.1641436,7.55330018 66.1641436,7.55330018 L65.8632137,7.55330018 C65.8632137,7.55330018 64.3585642,7.52603194 61.9237677,7.6623731 C59.7899012,7.79871426 56.9447458,8.04412835 53.7439459,8.58949298 C50.7072897,9.08032115 47.3423463,9.81656341 43.9774029,10.9345609 C43.7038302,10.9890974 43.4302576,11.0981703 43.156685,11.179975 C38.3418066,12.8160689 35.2230786,14.3703581 33.6637145,15.2156733 C32.8429966,15.651965 32.4599949,15.9246473 32.4599949,15.9246473 L32.4873522,14.833918 L32.5147095,14.8066498 L32.4873522,14.3703581 L32.4873522,13.9340664 L32.5147095,11.5889985 L32.6514958,11.5889985 C32.6514958,11.5889985 37.8493759,8.99851646 42.3633243,7.38969079 C46.165984,6.0262792 52.1298674,4.93554993 53.8807323,4.63559939 C54.1816622,4.58106292 54.4278775,4.71740408 54.5920211,4.96281817"/><path d="M32.4873522,14.3703581 L32.4873522,14.833918 C32.0769933,15.1338686 27.9460465,18.2151788 25.7301081,20.2330279 C24.6905321,21.187416 22.7755237,23.1507287 20.9699443,25.0867731 L20.9699443,25.1140414 C19.8209392,26.3138436 18.7266487,27.5136458 17.933288,28.3862292 C17.6870727,28.6316433 17.304071,28.4407656 17.304071,28.1408151 L17.304071,28.1135469 C17.7417872,27.186427 18.0700743,26.477453 18.3162897,25.9866248 C18.343647,25.9320883 18.3710042,25.8775519 18.3710042,25.8502836 C18.8087205,25.1140414 19.3011512,24.3232627 19.903011,23.5052157 C22.3104502,20.2602961 32.4326377,12.3797772 32.4326377,12.3797772 L32.4873522,13.9340664 L32.4873522,14.3703581 Z"/><path d="M20.9699443,25.1140414 C20.6963716,25.659406 18.972864,29.067935 16.7569257,34.6306542 C15.1702044,36.2667481 13.8570558,37.7665009 12.844837,38.9935713 C14.5957019,34.2216308 16.2097804,30.485883 17.304071,28.1408151 C17.304071,28.4407656 17.6870727,28.6316433 17.933288,28.3862292 C18.7266487,27.5136458 19.8209392,26.3138436 20.9699443,25.1140414"/><path d="M5.89609208,63.207761 C7.83845779,53.7456846 10.4921123,45.428874 12.844837,38.9935713 C13.8570558,37.7665009 15.1702044,36.2667481 16.7569257,34.6306542 C14.2400574,40.956884 11.0939721,50.0099369 8.71389022,60.6718155 C7.61959968,61.6262036 6.66209546,62.498787 5.89609208,63.207761"/><path d="M8.71389022 60.6718155C7.67431421 65.4164878 6.77152451 70.4883789 6.16966472 75.7784158 5.21216049 76.1601711 4.39144259 76.5146581 3.73486826 76.7873404 4.22729901 72.0972046 4.99330238 67.5434099 5.89609208 63.2350293L5.89609208 63.207761C6.66209546 62.498787 7.61959968 61.6262036 8.71389022 60.6718155M5.62251944 101.601431C5.78666303 104.164645 6.0328784 106.700591 6.3338083 109.182 5.75930576 107.136882 4.96594512 105.228106 3.48865289 104.628205 3.35186657 103.292062 3.26979478 101.955918 3.18772299 100.592507 3.89901184 100.892457 4.71972975 101.219676 5.62251944 101.601431"/><path d="M3.16036573 83.0317655C3.29715205 80.9321116 3.48865289 78.8324578 3.73486826 76.7873404 4.39144259 76.5146581 5.21216049 76.1601711 6.16966472 75.7784158 5.89609208 78.0689473 5.67723397 80.386747 5.51309039 82.7318149 5.37630407 84.9132735 5.29423228 87.0674638 5.26687502 89.2216541L2.91415036 89.2216541C2.94150762 87.1765367 3.02357941 85.1041511 3.16036573 83.0317655M3.18772299 100.592507C2.94150762 96.8567589 2.83207857 93.0664747 2.91415036 89.2216541L5.26687502 89.2216541C5.18480323 93.4209617 5.32158955 97.565733 5.62251944 101.601431 4.71972975 101.219676 3.89901184 100.892457 3.18772299 100.592507"/></g><path stroke="#1D1D1B" stroke-width="1.5" d="M199 60C199 60 206.472222 61.1390728 211.222222 66.5695364L216 72M218 84.5518956C218 84.5518956 215.942857 80.4631304 213.041758 81.0594086 212.118681 81.2581681 211.142857 81.6556869 210.193407 82.1951768 208.10989 83.3309449 206.263736 85.0345971 206 86"/><path stroke="#1D1D1B" stroke-width="1.5" d="M210,82.3900689 L213.084337,85.7186484 L219.72117,92 L221.153184,91.087325 L224.182444,89.127758 L225.201377,88.4566734 C225.531842,88.2419264 225.752151,87.9466492 225.889845,87.5976852 C226,87.3292514 226.027539,87.0339741 225.972461,86.7386969 L224.843373,79.0078026 C224.843373,79.0078026 221.043029,74.3907407 219.528399,72.8606679 C218.950086,72.2701135 218.179002,71.9748363 217.490534,72.0016797 C217.13253,72.0016797 216.774527,72.1090532 216.471601,72.2969569 C216.333907,72.377487 216.223752,72.4580172 216.141136,72.5922341 C215.810671,72.9411981 215.6179,73.4512223 215.645439,74.1491503 C215.783133,79.4641401 219.115318,83.9201417 219.115318,83.9201417 L218.096386,84.5106961 L216.967298,85.1549373 L213.607573,81.3163336"/><path stroke="#1D1D1B" stroke-width="1.5" d="M226 88C226 88 225.914053 87.9185059 225.74216 87.7555178 224.538908 86.5602716 219.21022 81.2631579 218.236159 78.2750424 216.861014 74.0916808 217.004258 72 217.004258 72M216 71.7622926C216 71.7622926 206.701987 67.0693187 204 73M145.89711 71.6598733C146.165349 73.1501578 146.406764 74.4051342 146.487236 74.5097155 146.648179 74.7450236 149.786575 76 149.786575 76 149.786575 76 150.135286 74.2482621 151.932487 74.3266981 152.898147 74.3789888 156.277958 74.7973143 159.335882 75.1894944 161.9378 75.5032385 164.298302 75.7646919 164.754309 75.7385466 165.773617 75.6601106 168 75.7385466 168 72.5226696 168 72.5226696 167.785409 70.7709317 159.73824 68.6270137 159.25541 68.496287 158.745756 68.3655603 158.182454 68.2086882 153.67604 66.9537119 147.157833 65.1235379 146.567708 65.0451019 146.084878 64.9928112 145.387456 64.8882299 145.119217 65.4111367 145.011922 65.6202994 144.958274 65.9601889 145.038746 66.4569504 145.172865 67.3720373 145.5484 69.646682 145.870286 71.5291466M169.22033 102.942924 170.821539 102.800233C171.595456 102.600467 172.049132 102.143858 171.995759 101.316254L171.889011 99.8608117C171.889011 99.8322736 171.889011 99.7751974 171.862325 99.7466594 171.782264 99.0617455 171.275215 98.5195221 170.608045 98.4053698L162.602001 97.2923848 153.181557 96.0081714C152.514387 95.9225572 151.927277 96.5218568 152.007338 97.2353087L152.461013 101.972629C152.514387 102.514853 152.888002 102.942924 153.395052 103"/><line x1="124.38" x2="124.62" y1="10" y2="13" stroke="#1D1D1B" stroke-width="1.5"/><line x1="127.065" x2="127.935" y1="10" y2="13" stroke="#1D1D1B" stroke-width="1.5"/><line x1="130.735" x2="132.265" y1="11" y2="14" stroke="#1D1D1B" stroke-width="1.5"/><path stroke="#1D1D1B" stroke-width="1.5" d="M168.400254 38.6091971C166.617276 36.6880533 164.726238 34.7398512 163.699675 33.7928085 161.48446 31.7904897 157.432237 28.7328946 157.027015 28.4081943L157 28.4081943 157.027015 28.0023189 157.081044 26C157.081044 26 167.076528 33.8198669 169.426817 37.0398121 170.669499 38.7174305 171.479943 40.3409323 171.96621 41.5044419 172.128299 41.8562006 171.669047 42.180901 171.398899 41.883259 170.615469 41.0173914 169.534876 39.8268234 168.400254 38.6362555M149 157C150.872611 156.251599 154.029299 154.921109 156.998726 153.479744 158.817834 152.592751 160.529936 151.705757 161.867516 150.846482 166.575796 147.82516 169.732484 144.914712 170 144M149.487644 149C149.037644 149.193772 148.767644 150.633218 148.677644 151.103806L147.537644 155.83737C147.387644 156.474048 147.927644 157 148.557644 157M174 44C174.135965 44.3258762 174.27193 44.624596 174.380702 44.8690031 174.625439 45.3849737 174.761404 45.7380063 174.815789 45.8466317 175.033333 46.3082896 176.964035 49.7843021 179.248246 55.0526336 181.885965 61.162812 185.013158 69.7170616 186.481579 78.7872818 187.107018 82.7249523 187.650877 86.7712481 188.113158 90.6274496L188.140351 90.6274496C188.602632 94.7823708 189.010526 98.7471976 189.336842 102.168897 189.744737 106.649695 189.989474 110.207176 190.152632 112.026652 190.207018 112.732717 190.234211 113.194375 190.261404 113.330157 190.560526 115.231101 191.131579 116.996263 191.811404 118.489863 192.844737 120.825309 194.204386 122.481846 195.373684 122.834878 199.34386 124.08407 203.232456 118.082517 205 110.342958M187 38.8066821C187 38.8066821 186.972754 38.7791534 186.918261 38.6965676 186.046379 37.7605951 179.534507 30.7132728 175.474804 28.7312134 175.175094 28.5935703 174.875385 28.4559273 174.602921 28.3733415 170.46148 27.02444 167.546123 26.5013965 167.028443 27.575012 166.646994 28.3182843 170.189017 36.7695654 172.450462 42M169 72.842645 168.640675 68.0795859C168.336632 66.5099414 167.092816 65.2650509 165.489675 64.9402969L157.94386 63.4518409 145.947947 61.0703113C145.560982 60.9891228 145.174018 60.9891228 144.814693 61.0161856 142.714026 61.1785627 140.972684 62.8835213 141.000325 65.0756111L141.083246 77.3621387 141.276728 101.98932 141.304368 105.61574C141.332009 107.537201 142.935149 109.05272 144.869974 108.998594L147.855132 108.917406 149.651754 108.86328C150.785009 108.836217 151.69714 107.943144 151.752421 106.86063L152.028825 101.98932 152.084105 100.960932"/><path stroke="#1D1D1B" stroke-width="1.5" d="M172 99 171.861635 94.9722222C171.806289 93.5555556 170.699371 92.3888889 169.28805 92.3333333L161.927044 91.9166667 152.296855 91.3888889C151.134591 91.3333333 150.249057 90.4166667 150.221384 89.2777778L150.027673 78.3333333 150 76M149.496552 156.31056 149.137931 156.364387 145.937931 156.956485C144.972414 157.117966 144.034483 156.821917 143.372414 156.202906 142.793103 155.691549 142.406897 154.991797 142.37931 154.157477L142.186207 150.389582 141.055172 126.571102 141 125.521474 141.248276 123.368391C141.386207 122.184196 142.37931 121.269135 143.593103 121.188395L146.903448 121C147.096552 121 147.289655 121 147.510345 121.053827 148.613793 121.242222 149.496552 122.157282 149.551724 123.341478L149.606897 125.359993 150.103448 143.122927C150.158621 144.468604 151.62069 145.27601 152.834483 144.656999 152.834483 144.656999 156.558621 143.284408 160.282759 141.642683 161.082759 141.265893 161.882759 140.889104 162.655172 140.512314 166.517241 138.628367 170.544828 135.937013 170.544828 135.937013 171.593103 135.398742 172.917241 135.237261 173 136.394543M128 21C128 21 128.151899 22.9372785 128.379747 26.3479802 128.759494 31.6959603 129.341772 40.672927 129.949367 51.6417434 130.278481 57.8901488 130.632911 64.7934089 130.936709 71.9968108 130.987342 73.5793763 131.063291 75.1892275 131.113924 76.7990787 131.443038 85.1757619 131.721519 93.907158 131.873418 102.474841 131.898734 103.457123 131.898734 104.412119 131.924051 105.394401 131.974684 108.614103 132 111.779235 132 114.889794 132 119.200921 131.949367 123.348335 131.898734 127.35932 131.721519 136.636428 131.367089 145.067682 130.962025 152.434798 130.810127 155.709072 130.607595 158.737775 130.405063 161.548193 130.050633 166.896173 129.670886 171.425585 129.341772 175"/><path stroke="#1D1D1B" stroke-width="1.5" d="M136 22C136 22 136.733032 24.0518359 137.873303 27.8819294 139.447964 33.2714183 141.755656 42.2174226 143.791855 53.9812815 144.199095 56.3340533 144.579186 58.7688985 144.959276 61.3405328 145.149321 62.8178546 145.366516 64.3225342 145.556561 65.8545716 145.828054 67.9337653 146.072398 70.0676746 146.316742 72.2562995 146.343891 72.3110151 146.343891 72.3383729 146.343891 72.3930886 146.533937 74.4175666 146.751131 76.4967603 146.914027 78.6306695 147.565611 86.0993521 147.972851 94.1699064 148 102.760259L148 102.814975C148 105.140389 148 107.465803 147.945701 109.763859 147.864253 113.648668 147.701357 117.478762 147.484163 121.226782 147.402715 122.813535 147.294118 124.427646 147.158371 126.014399 146.506787 134.87833 145.529412 143.167747 144.41629 150.526998 144.090498 152.770338 143.737557 154.904248 143.411765 156.956084 142.271493 163.768179 141.076923 169.568035 140.072398 174M145 24C145 24 146.288287 26.2135319 148.192712 30.8318884 150.461218 36.3247267 153.569912 45.1788541 156.398543 57.7768564 156.818637 59.5531474 157.210724 61.411421 157.602812 63.3243498 157.910881 64.9366755 158.246956 66.5763287 158.555024 68.2979646 158.975118 70.6208066 159.395212 73.0529589 159.759293 75.5944214 160.039356 77.3707124 160.319418 79.2016585 160.571474 81.0599322 161.04758 84.557859 161.49568 88.2470788 161.859762 92.1002639 162.027799 93.6032793 162.16783 95.1336223 162.307862 96.7186204 162.419887 97.8117226 162.503905 98.9048247 162.587924 99.9979269 162.643937 100.735771 162.699949 101.473615 162.727955 102.211459 163.176055 108.961364 163.036024 115.629288 162.559918 122.023935 162.027799 128.910479 161.04758 135.496419 159.871318 141.590464 159.675274 142.601583 159.479231 143.612703 159.283187 144.569167 158.639043 147.520543 157.994899 150.335281 157.294743 153.013381 155.670381 159.271391 153.962 164.709574 152.449662 169"/><path stroke="#1D1D1B" stroke-width="1.5" d="M156 28C156.220087 28.3825295 158.008294 31.5247361 160.484273 37.0714138 163.290383 43.4377976 166.97684 52.9737114 170.058058 65.1053612 171.598668 71.1438626 172.974211 77.8108052 174.047136 85.0788657 174.679886 89.3413372 175.202592 93.822397 175.560234 98.4673981 175.670277 99.7242807 175.75281 100.95384 175.807832 102.156075 176.110451 107.730077 176.027919 112.948872 175.75281 117.757814 175.312636 124.561374 174.377266 130.627199 173.194298 135.873318 172.589059 138.714966 171.901287 141.338025 171.186004 143.687849 168.022253 154.316705 164.418328 160 164.418328 160M171.53 167.44C171.5 167.53 171.47 167.56 171.47 167.56M183.148571 89C183.418571 91.3238405 183.658571 93.6753458 183.838571 96.0545159 183.988571 98.2676973 184.078571 100.480879 184.108571 102.666395 184.168571 106.92677 184.018571 111.10415 183.658571 115.198535 183.478571 117.854353 183.208571 120.454841 182.878571 123M168 38C168 38 168 38.0274046 168.027675 38.0548092L168.027675 38.0822139C168.304428 38.6303063 170.04797 42.0558839 172.289668 47.6464267 174.835793 54.0042988 178.01845 63.102633 180.426199 73.8178399 181.47786 78.586244 182.391144 83.6835035 183 89M184 77C184.909953 81.293698 185.677725 85.8061831 186.189573 90.4827586 186.417062 92.4244946 186.587678 94.3935791 186.729858 96.3626635 186.872038 98.5505351 186.957346 100.711058 186.985782 102.871581 187.042654 106.727705 186.92891 110.529132 186.64455 114.248514 186.559242 115.615933 186.445498 116.956005 186.331754 118.296076 186.189573 119.882283 186.018957 121.441141 185.819905 123M171 38C171 38 171.526652 38.9992893 172.385928 40.8628287 172.496802 41.0518834 172.579957 41.267946 172.690832 41.4840085 173.051173 42.3212509 173.411514 43.0774698 173.688699 43.6986496 173.799574 43.9687278 173.938166 44.2658138 174.076759 44.5628998 174.963753 46.6695096 176.044776 49.2892679 177.153518 52.2871357 179.509595 58.633973 182.08742 66.790334 184 76"/><path stroke="#1D1D1B" stroke-width="1.5" d="M205.133894,110.506824 C202.871848,130.242071 196.085707,149.731989 185.620334,164.533424 C170.303825,186.204033 144.549196,194 124.163521,194 L123.863732,194 C103.478058,194 77.6961752,186.204033 62.3796657,164.533424 C51.9142927,149.731989 45.1281524,130.269329 42.8661057,110.506824 C41.8849769,102.165684 41.7214555,93.7427685 42.457302,85.6196975 C42.8115985,81.4491275 43.4111772,77.3603334 44.256038,73.3805738 C45.2644203,68.5012795 46.6543527,63.8127956 48.4258351,59.3696394 C49.6794995,56.1258627 51.1784462,53.0456378 52.8681679,50.1289647 C55.3482433,45.8766188 57.8555722,41.9786351 60.4174083,38.4350135 C79.7674469,11.6397828 101.188757,3.65300498 113.534627,1.19972852 C119.88471,-0.0541683443 123.863732,0 123.863732,0 L124.163521,0 C124.163521,0 128.11529,-0.0541683443 134.465373,1.19972852 C146.783989,3.65300498 168.178046,11.6397828 187.500831,38.3532376 C190.089921,41.9241178 192.651757,45.8493602 195.131832,50.1289647 C196.821554,53.0456378 198.3205,56.1258627 199.574165,59.3696394 C201.345647,63.8127956 202.73558,68.5012795 203.743962,73.3805738 C204.588823,77.3603334 205.188401,81.4491275 205.542698,85.6196975 C206.278545,93.7427685 206.115023,102.165684 205.133894,110.506824 Z"/><path stroke="#1D1D1B" stroke-width="1.5" d="M72 29C74.5279665 26.1666667 82.4652378 21.7222222 83.9602718 20.8333333 85.4553058 19.9444444 107.174072 11.8611111 107.174072 11.8611111L111.38735 7.94444444C111.38735 7.94444444 115.247256 7.44444444 116.878202 7.30555556 119.86827 7.05555556 123.864088 7 123.864088 7L124.163095 7C124.163095 7 128.13173 7.05555556 131.148981 7.30555556 132.779927 7.44444444 136.61265 7.94444444 136.61265 7.94444444L140.85311 11.8611111C140.85311 11.8611111 162.544694 19.9444444 164.039728 20.8333333 165.561945 21.7222222 173.472033 26.1666667 176 29M48 60C48 60 40.5399674 61.1390728 35.7699837 66.5695364L31 72M29 84.5518956C29 84.5518956 31.0835165 80.4631304 33.9582418 81.0594086 34.8813187 81.2581681 35.8571429 81.6556869 36.8065934 82.1951768 38.8901099 83.3309449 40.7362637 85.0345971 41 86"/><path stroke="#1D1D1B" stroke-width="1.5" d="M23.8266667,90 L21.7733333,88.642662 C21.4533333,88.425488 21.24,88.1268736 21.1066667,87.7739657 C21,87.5024982 20.9733333,87.2038838 21.0266667,86.9052694 L21.7466667,81.9645593 L22.1466667,79.0870028 C22.1466667,79.0870028 25.8266667,74.4177602 27.2933333,72.8703949 C27.8533333,72.2731662 28.5733333,71.9745519 29.2666667,72.0016986 C29.6133333,72.0016986 29.96,72.1102857 30.2266667,72.300313 C30.36,72.3817533 30.4666667,72.4631935 30.5733333,72.5989273 C30.8666667,72.9518352 31.0533333,73.4676236 31.0266667,74.1734394 C30.92,79.5484977 27.6666667,84.0548597 27.6666667,84.0548597 L28.68,84.6520884 L29.7733333,85.3036107 L33,81.4216241"/><polyline stroke="#1D1D1B" stroke-width="1.5" points="37 82 33.935 85.464 27.366 92 24 89.737"/><path stroke="#1D1D1B" stroke-width="1.5" d="M21 88C21 88 21.0856913 87.9185059 21.2570738 87.7555178 22.4853152 86.5602716 27.7981736 81.2631579 28.7693413 78.2750424 30.1118377 74.0916808 29.9975827 72 29.9975827 72M31 71.7622926C31 71.7622926 40.2980132 67.0693187 43 73M130.706924 162.012658C128.73591 162.616034 126.518519 163 124.164251 163L123.863124 163C121.508857 163 119.291465 162.616034 117.293076 162.012658 113.186795 160.833333 109.983897 158.803797 108.31401 157.597046 107.492754 156.993671 107 156.061181 107 155.046414L107 151.398734 107 126.824895 107 124.493671C107 121.531646 112.146538 117.938819 112.146538 115.14135 112.146538 112.371308 110.257649 110.259494 108.916264 109.135021 108.122383 108.476793 107.657005 107.489451 107.657005 106.474684L107.657005 102.662447 107.657005 77.5675105 107.657005 76.6624473C107.657005 74.1118143 109.73752 72 112.310789 72L116.745572 72 123.863124 72 124.164251 72 131.281804 72 135.689211 72C138.26248 72 140.342995 74.1118143 140.342995 76.6624473L140.342995 77.5675105 140.342995 102.662447 140.342995 106.474684C140.342995 107.489451 139.877617 108.476793 139.083736 109.135021 137.769726 110.259494 135.880837 112.371308 135.880837 115.14135 135.880837 117.938819 141 121.531646 141 124.493671L141 126.852321 141 151.398734 141 155.046414C141 156.061181 140.507246 156.993671 139.68599 157.597046 138.016103 158.803797 134.813205 160.833333 130.706924 162.012658ZM101.10379 71.6593903C100.808715 73.1498406 100.594115 74.4049567 100.51364 74.5095497 100.325865 74.7448839 97.1873414 76 97.1873414 76 97.1873414 76 96.8386165 74.2480672 95.0681674 74.3265119 94.1024678 74.3788084 90.6956945 74.7971804 87.6376459 75.1894042 85.0356221 75.5031832 82.6750233 75.7646657 82.2189985 75.7385175 81.199649 75.6600727 79 75.7385175 79 72.5222826 79 72.5222826 79.1877749 70.7703498 87.2352711 68.6261932 87.7181209 68.4954519 88.2277956 68.3647107 88.7911204 68.2078212 93.2977182 66.9527051 99.8161901 65.1223275 100.433165 65.0438828 100.916015 64.9915863 101.586639 64.8869933 101.854889 65.4361065 101.989014 65.6452926 102.042664 65.9590716 101.962189 66.4558883 101.801239 67.3710771 101.452514 69.645975 101.130615 71.5286491M77.7764946 102.942924 76.1771149 102.800233C75.4040814 102.600467 74.9509238 102.143858 75.0042365 101.316254L75.1108618 99.8608117C75.1108618 99.8322736 75.1108618 99.7751974 75.1375181 99.7466594 75.2174871 99.0617455 75.7506137 98.5195221 76.4170219 98.4053698L84.387264 97.2923848 93.7969478 96.0081714C94.4900124 95.9225572 95.0497953 96.5218568 94.9964826 97.2353087L94.543325 101.972629C94.4900124 102.514853 94.0901675 102.942924 93.6103535 103M90.0273246 27.4759358 90.0273246 27.9304813 90 29C90 29 90.3825449 28.7326203 91.2022838 28.3048128 92.7597879 27.4759358 95.8747961 25.9518717 100.683931 24.3475936 100.957178 24.2673797 101.230424 24.1604278 101.50367 24.1069519 104.8646 23.0106952 108.22553 22.2887701 111.258564 21.8074866 114.455546 21.2727273 117.297308 21.0320856 119.42863 20.8983957 121.860522 20.7647059 123.363377 20.7914439 123.363377 20.7914439L123.663948 20.7914439C123.663948 20.7914439 125.166803 20.7647059 127.598695 20.8983957 129.702692 21.0320856 132.544454 21.2727273 135.741436 21.8074866 138.77447 22.2887701 142.1354 23.0106952 145.49633 24.0802139 145.769576 24.1604278 146.070147 24.2406417 146.343393 24.3475936 151.179853 25.9518717 154.294861 27.4759358 155.825041 28.3048128L155.852365 28.3315508C156.617455 28.7593583 157 29 157 29L157 27.9037433 157 27.5026738 156.972675 24.7486631 156.945351 22.7433155 152.272838 18.6791444 137.24429 14"/><polyline stroke="#1D1D1B" stroke-width="1.5" points="110 14 94.786 18.662 90.055 22.711 90.028 24.709 90 27"/><path stroke="#1D1D1B" stroke-width="1.5" d="M124.515547,9.08139754 C124.16349,9.02713251 123.865597,9 123.648947,9 L123.351053,9 C123.134403,9 122.83651,9.02713251 122.484453,9.08139754 C121.699097,9.16279508 120.615848,9.29845765 119.451354,9.51551777 C118.476429,9.65118034 117.420261,9.81397542 116.418255,9.9767705 C114.414243,10.3294932 112.653962,10.6550834 112.139418,10.7364809 C112.031093,10.7636134 111.94985,10.8178784 111.868606,10.899276 C111.597793,11.2248661 110.812437,12.2016367 110.081244,13.2869372 C110.027081,13.3683348 110,13.4497323 110,13.5311298 C110,13.802455 110.21665,14.0466476 110.514544,13.9923826 C111.841525,13.74819 113.439318,13.5582624 115.064193,13.4225998 C116.282849,13.3140697 117.528586,13.2055397 118.665998,13.1241421 C120.128385,13.0427446 121.428285,12.961347 122.267803,12.9342145 C122.944835,12.907082 123.351053,12.8799495 123.351053,12.8799495 L123.648947,12.8799495 C123.648947,12.8799495 124.055165,12.907082 124.705115,12.907082 C125.544634,12.961347 126.844534,13.0427446 128.306921,13.1241421 C129.444333,13.2055397 130.69007,13.3140697 131.935807,13.4225998 C133.533601,13.5853949 135.131394,13.7753225 136.458375,13.9923826 C136.756269,14.0466476 137,13.802455 137,13.5311298 C137,13.4497323 136.972919,13.3683348 136.918756,13.2869372 C136.187563,12.2016367 135.375125,11.2248661 135.104313,10.899276 C135.05015,10.8178784 134.968907,10.7636134 134.860582,10.7364809 C134.346038,10.6550834 132.585757,10.3294932 130.581745,9.9767705 C129.579739,9.81397542 128.523571,9.65118034 127.548646,9.51551777 C126.357071,9.29845765 125.300903,9.16279508 124.515547,9.08139754 Z"/><line x1="122.635" x2="122.365" y1="10" y2="13" stroke="#1D1D1B" stroke-width="1.5"/><line x1="119.95" x2="119.05" y1="10" y2="13" stroke="#1D1D1B" stroke-width="1.5"/><line x1="116.265" x2="114.735" y1="11" y2="14" stroke="#1D1D1B" stroke-width="1.5"/><path stroke="#1D1D1B" stroke-width="1.5" d="M78.5725338 38.2631579C80.3597679 36.3947368 82.2553191 34.5 83.2843327 33.5789474 85.4777563 31.6315789 89.5667311 28.6578947 89.9729207 28.3684211L90 28.3421053 89.9729207 27.9210526 89.9729207 27.5 89.9187621 26C89.9187621 26 79.8994197 33.6052632 77.516441 36.7368421 76.9206963 37.5263158 76.4332689 38.2894737 76 39M75 40.6829302C75 40.9488062 75.4179104 41.118 75.6865672 40.9004651 76.5522388 40.1270078 77.7462687 39.0635039 79 38"/><path stroke="#1D1D1B" stroke-width="1.5" d="M76.055 39.33C75.605 40.14 75.245 40.92 74.975 41.55 74.945 41.61 74.945 41.64 74.945 41.67M90 25C90 25 95.221493 22.3966259 99.7559475 20.7797936 103.575882 19.4095968 109.566858 18.3134393 111.325677 18.011996 111.627974 17.9571881 111.875308 18.0942078 112.040197 18.3408432 112.260049 18.6422865 112.644791 19.0259416 113.276866 18.9437298 114.376128 18.8341141 118.196062 18.4778629 120.779327 18.2860353 121.961034 18.2038235 123.335111 18.1764196 123.335111 18.1764196L123.664889 18.1764196C123.664889 18.1764196 125.038966 18.2038235 126.220673 18.2860353 128.831419 18.4778629 132.651354 18.8341141 133.750615 18.9437298 134.382691 19.0259416 134.767432 18.6422865 134.959803 18.3408432 135.124692 18.0942078 135.399508 17.9571881 135.674323 18.011996 137.433142 18.3134393 143.424118 19.4095968 147.271534 20.7797936 151.805989 22.3966259 157 25 157 25M98 157C96.1541401 156.251599 93.0242038 154.921109 90.0547771 153.479744 88.2356688 152.620469 86.4700637 151.705757 85.1592357 150.846482 80.4509554 147.82516 77.2942675 144.914712 77 144M97.5123563 149C97.9923563 149.193772 98.2323563 150.633218 98.3523563 151.103806L99.4623563 155.83737C99.6123563 156.474048 99.0723563 157 98.4423563 157"/><path stroke="#1D1D1B" stroke-width="1.5" d="M59.7301603 38.6441174C59.7301603 38.6441174 66.9934503 30.797893 71.3845648 28.7073765 71.6883526 28.5716287 71.9921404 28.4358809 72.2683111 28.3544322 76.4661061 27.0241035 79.4211328 26.5082617 79.9734742 27.5670948 80.4981986 28.5987782 73.0692062 44.8885175 72.627333 45.8659018 72.4340135 46.3274444 70.4732014 49.8025888 68.1533673 55.0696045 65.4745113 61.1782567 62.298548 69.7303697 60.8072261 78.7983246 60.1444164 82.7350115 59.592075 86.7802968 59.1225847 90.6626846 58.6254774 94.8165681 58.2388384 98.7804047 57.9074336 102.1741 57.4931775 106.653779 57.2170068 110.210372 57.0789214 112.029393 57.0236873 112.735281 56.9684531 113.196824 56.940836 113.332572 56.6370483 115.205892 56.0847068 116.970613 55.39428 118.46384 54.3448313 120.798702 52.9639777 122.481975 51.7488265 122.83492 47.7167339 124.0838 44.7674926 119.767019 43 112.029393M189.465 132C190.875 126.367188 191.325 121.992188 191.475 119.722656 191.505 119.121094 191.535 118.65625 191.535 118.355469L191.535 118M58 132.137441C59.8022342 140.109024 63.3793959 150.582036 70.36988 161.247464 71.7898221 163.391545 73.48283 165.398185 75.421597 167.239896 86.0711626 177.465513 103.738519 183.238039 116.436078 184.667426 119.985933 185.052262 123.836161 184.997285 123.836161 184.997285L124.136533 184.997285C124.136533 184.997285 127.959454 185.052262 131.536616 184.667426 144.206868 183.238039 161.874224 177.465513 172.52379 167.239896 174.462557 165.398185 176.155565 163.391545 177.575507 161.247464 184.620604 150.499571 187.697766 139.999072 189.5 132L198.15332 141.5"/><path stroke="#1D1D1B" stroke-width="1.5" d="M55.435 118 55.435 118.324952C55.435 118.622824 55.465 119.083172 55.495 119.733075 55.645 122.007737 56.095 126.367505 57.565 132M184.713474 139.479184C188.5504 130.136803 188.958583 124.233502 188.958583 124.233502 188.958583 124.233502 189.502828 118.140645 186.645543 118.005248 186.264572 117.978169 185.938025 118.059407 185.611478 118.167725 184.060381 118.736391 183.271226 120.713185 182.672557 122.825375 182.482071 123.47528 182.318798 124.152264 182.155524 124.802169 181.910614 125.749946 181.420794 127.591343 180.7677 129.83893 179.29824 134.902771 176.9852 142.132961 174.91707 145.978231 173.257123 149.092358 169.229713 154.914421 163.896115 160.249055 160.521797 163.688135 156.576023 166.910579 152.412551 169.104007 151.460123 169.618515 150.507695 170.078864 149.555267 170.457976 146.126525 171.839023 142.724996 172.81388 139.595589 173.463785 135.432117 174.384483 131.704041 174.763594 128.873968 174.898991 125.554076 175.088547 123.513158 174.95315 123.513158 174.95315L123.213823 174.95315C123.213823 174.95315 121.172906 175.088547 117.853013 174.898991 115.022941 174.763594 111.322077 174.384483 107.158605 173.490864 104.001985 172.81388 100.600456 171.839023 97.1717144 170.457976 96.2192862 170.078864 95.2396458 169.618515 94.3144298 169.104007 89.4706519 166.531468 84.9534209 162.60496 81.1981325 158.597214 76.6809015 153.750008 73.3065844 148.794485 71.8099114 145.978231 69.7689938 142.132961 67.4287416 134.929851 65.9592809 129.86601 65.278975 127.591343 64.7891548 125.749946 64.5442447 124.802169 64.3809713 124.152264 64.2176979 123.47528 64 122.825375"/><path stroke="#1D1D1B" stroke-width="1.5" d="M64.3009011 121.782184C63.7293834 119.723165 62.9401447 117.801414 61.4705277 117.197435 61.1439461 117.060167 60.7629343 116.977807 60.3547074 117.00526 57.4971188 117.142528 58.0414214 123.319585 58.0414214 123.319585 58.0414214 123.319585 59.1572417 139.462295 74.7515108 160.766279 83.0793404 172.186971 98.8913306 179.187636 116.145723 180.75249 119.710905 181.05448 125.725448 181.109387 131.195689 180.75249 148.450081 179.571986 164.234856 172.186971 172.589901 160.766279 178.68609 152.447842 182.550638 144.898105 185 138.803409M78 72.842645 78.3593287 68.0795859C78.6357354 66.5099414 79.8795656 65.2650509 81.4827246 64.9402969L89.0562685 63.4518409 101.05232 61.0703113C101.439289 60.9891228 101.826259 60.9891228 102.185587 61.0161856 104.286278 61.1785627 106 62.8835213 106 65.0756111L105.889437 77.3621387 105.695953 101.98932 105.668312 105.61574C105.668312 107.537201 104.037512 109.05272 102.102665 108.998594L99.1451135 108.917406 97.3208292 108.86328C96.1875617 108.836217 95.2754195 107.943144 95.2201382 106.86063L94.9713722 101.962257 94.9160908 100.960932"/><path stroke="#1D1D1B" stroke-width="1.5" d="M75 99 75.138539 94.9722222C75.1662469 93.5555556 76.2745592 92.3888889 77.6876574 92.3333333L85.0579345 91.9166667 94.7279597 91.3888889C95.8639798 91.3333333 96.7506297 90.4166667 96.7783375 89.2777778L96.9722922 78.3333333 97 76M97.4832041 156.312608 97.8415159 156.366438 101.03876 156.958571C102.031008 157.120061 102.995693 156.79708 103.657192 156.204948 104.208441 155.693561 104.594315 154.966853 104.621878 154.1594L104.814815 150.391287 105.944875 126.571425 106 125.521736 105.751938 123.368529C105.614126 122.184264 104.621878 121.269151 103.40913 121.188406L100.074074 121C99.881137 121 99.6881998 121 99.4677003 121.05383 98.3652024 121.242236 97.4832041 122.157349 97.4280792 123.341614L97.3729543 125.360246 96.9043928 143.12421C96.8492679 144.469965 95.3884582 145.277418 94.1757106 144.658371 94.1757106 144.658371 90.4547804 143.285701 86.7338501 141.616965 85.9345392 141.267069 85.1352283 140.890257 84.3634798 140.513446 80.5047373 138.629389 76.4806202 135.937879 76.4806202 135.937879 75.4056848 135.399577 74.0826873 135.238087 74 136.395436M119 21C119 21 118.848101 22.9372785 118.620253 26.3479802 118.240506 31.6959603 117.658228 40.672927 117.050633 51.6417434 116.721519 57.8901488 116.367089 64.7934089 116.063291 71.9968108 115.987342 73.5793763 115.936709 75.1892275 115.886076 76.7990787 115.531646 85.1757619 115.278481 93.907158 115.126582 102.474841 115.101266 103.457123 115.101266 104.412119 115.075949 105.394401 115.025316 108.641389 115 111.833806 115 114.944366 115 119.228207 115.050633 123.37562 115.101266 127.35932 115.278481 136.636428 115.607595 145.067682 116.012658 152.434798 116.189873 155.681786 116.392405 158.737775 116.56962 161.548193 116.949367 166.896173 117.329114 171.425585 117.658228 175"/><path stroke="#1D1D1B" stroke-width="1.5" d="M103 150C103.298137 152.171329 103.621118 154.262238 103.944099 156.272727 104.987578 162.974359 106.080745 168.657343 107 173M111 22C111 22 110.265306 24.0434227 109.122449 27.8578118 107.544218 33.2252022 105.231293 42.1345253 103.217687 53.8773946 102.809524 56.1932737 102.401361 58.645381 102.047619 61.1792252 101.829932 62.6504896 101.639456 64.1489996 101.421769 65.7020009 101.176871 67.7726692 100.904762 69.8705832 100.687075 72.0502341 100.659864 72.1047254 100.659864 72.1319711 100.659864 72.1864623 100.442177 74.2026394 100.251701 76.2733078 100.088435 78.3984674 99.4353741 85.8365262 99.0272109 93.8739889 99 102.429119L99 102.48361C99 104.799489 99 107.115368 99.0544218 109.404002 99.1360544 113.300128 99.2993197 117.114517 99.4897959 120.819923 99.5986395 122.427416 99.707483 124.007663 99.8435374 125.58791 100.496599 134.415496 101.47619 142.670924 102.591837 150M88 145C88.6337449 147.902576 89.3251029 150.670773 90.0452675 153.277716 91.6872428 159.432251 93.4444444 164.780515 95 169M102 25C102 25 100.710714 27.2030825 98.8048129 31.8268359 96.5345484 37.2937443 93.4514731 46.1060743 90.6206494 58.6174071 90.20023 60.3853128 89.8078386 62.2348141 89.4154472 64.1387126 89.0791118 65.743427 88.7708042 67.37534 88.4344687 69.0888486 88.0140494 71.4007253 87.621658 73.8213962 87.2292666 76.3508613 86.948987 78.118767 86.6687074 79.9410698 86.4164558 81.7905712 85.9399806 85.2719855 85.4915332 88.9437897 85.1271698 92.7787851 84.9590021 94.2747053 84.8188623 95.7978241 84.6787225 97.37534 84.5666107 98.463282 84.4825268 99.5512239 84.3984429 100.639166 84.342387 101.373527 84.2863311 102.107888 84.2583031 102.842248 83.8378838 109.56029 83.9499956 116.196736 84.4544988 122.561197 84.98703 129.388033 85.9680085 135.942883 87.1451827 142.00816 87.3413784 143.014506 87.5375741 144.020852 87.7617978 145"/><path stroke="#1D1D1B" stroke-width="1.5" d="M91 28C91 28 89.1105712 31.1920252 86.5091837 37.0849948 83.688732 43.4417629 80.0194065 52.9632739 76.9525076 65.1038825 75.4190581 71.1332634 74.0499068 77.7901364 72.9819688 85.019937 72.3521592 89.2759706 71.8318817 93.7502623 71.4759024 98.3882476 71.3663703 99.6432319 71.2842212 100.870934 71.2294551 102.071354 70.9282418 107.664218 70.9282418 112.820567 71.2020721 117.594963 71.5306684 124.388248 72.3521592 130.335782 73.4200972 135.437566 73.9951408 138.465897 74.6797164 141.221406 75.3916751 143.649528 78.1299777 153.116474 81.1147276 158 81.1147276 158M75.47 167.44C75.5 167.53 75.53 167.56 75.53 167.56"/><line x1="64.5" x2="64.5" y1="128.485" y2="128.515" stroke="#1D1D1B" stroke-width="1.5"/><path stroke="#1D1D1B" stroke-width="1.5" d="M79,38 C79,38 79,38.0271845 78.9722153,38.0543689 L78.9722153,38.0815534 C78.6943688,38.6252427 76.9439355,42.023301 74.6933784,47.568932 C72.1371901,53.8757282 68.9419547,62.9009709 66.5246897,73.5300971 C65.4688728,78.2601942 64.5519792,83.3165049 63.9407168,88.5902913 C63.6628702,90.8737864 63.440593,93.184466 63.273885,95.5223301 C63.1349617,97.6970874 63.0516078,99.8446602 63.0238231,101.992233 C62.9404692,106.178641 63.0793924,110.31068 63.3850236,114.333981 C63.5517316,116.88932 63.8017935,119.417476 64.1074247,121.891262 L64.1074247,122"/><path stroke="#1D1D1B" stroke-width="1.5" d="M64 77C63.0998767 81.2752941 62.3361357 85.7941176 61.8451593 90.4482353 61.5996711 92.4776471 61.4087359 94.5611765 61.2723535 96.6447059 61.1359712 98.7011765 61.0541418 100.757647 61.0268654 102.787059 60.945036 106.602353 61.0541418 110.363529 61.29963 114.070588 61.3814594 115.423529 61.4632888 116.749412 61.5996711 118.075294 61.7360534 119.698824 61.8997122 121.322353 62.0906475 122.891765L62.0906475 123M76 38C76 38 75.916309 38.1641469 75.72103 38.5197984 75.72103 38.5471562 75.693133 38.6018719 75.6652361 38.6565875 75.4141631 39.1490281 75.0793991 39.8603312 74.6330472 40.7904968L74.6330472 40.8178546C73.5171674 43.1706263 71.8712446 46.9186465 70.0858369 51.7062635 67.6866953 58.162707 64.9806867 66.5068395 63 76"/><path stroke="#1D1D1B" stroke-width="1.5" d="M60,91 C60,91 60.7086882,90.68 61.9625213,90.1733333 C62.6166951,89.9066667 63.4344123,89.56 64.3884157,89.1866667 C66.7870528,88.2266667 70.0579216,87 73.846678,85.6933333 C77.7717206,84.36 82.2691652,82.9466667 86.9846678,81.72 C89.165247,81.16 91.3730835,80.6266667 93.6081772,80.1733333 C94.8892675,79.9066667 96.1703578,79.6666667 97.451448,79.4533333 C98.6235094,79.24 99.7683135,79.0533333 100.88586,78.8666667 C102.821124,78.5733333 104.701874,78.3333333 106.500852,78.12 C106.90971,78.0666667 107.318569,78.04 107.727428,77.9866667 C111.080068,77.6133333 114.105622,77.4 116.586031,77.2666667 C121.001704,77 123.781942,77 123.863714,77 L124.163543,77 C124.218058,77 127.025554,77 131.441227,77.2666667 C133.921635,77.4 136.947189,77.6133333 140.272572,77.9866667 C140.681431,78.04 141.09029,78.0666667 141.499148,78.12 C143.298126,78.3333333 145.206133,78.5733333 147.141397,78.8666667 C148.258944,79.0533333 149.403748,79.24 150.548552,79.4533333 C151.829642,79.6666667 153.110733,79.9066667 154.391823,80.1733333 C156.626917,80.6266667 158.834753,81.16 161.015332,81.72 C165.730835,82.9466667 170.228279,84.36 174.153322,85.6933333 C177.969336,87 181.240204,88.2533333 183.638842,89.1866667 L183.666099,89.1866667 C184.674617,89.6133333 185.546848,89.96 186.228279,90.2533333 C187.373083,90.7333333 188,91 188,91"/><path stroke="#1D1D1B" stroke-width="1.5" d="M61,79 C61,79 61.9273402,78.0306823 63.5638228,76.4797739 L63.5638228,76.4520791 C64.3275147,75.7320145 65.2821296,74.8457812 66.373118,73.8764635 C69.1551386,71.411627 72.8917739,68.337505 77.2557277,65.3741623 C81.2378355,62.6046831 85.7381628,59.9182883 90.5385119,57.8688736 C90.7294349,57.7580945 90.9203578,57.6750101 91.1112808,57.5919257 C95.338861,55.819459 99.5664412,54.5178038 103.494,53.5761809 C108.894392,52.2745256 113.749291,51.6098506 117.322278,51.3052079 C121.031639,50.9728704 123.322714,51.0005652 123.349989,51.0005652 L123.650011,51.0005652 C123.677286,51.0005652 125.968361,50.9728704 129.677722,51.3052079 C133.223434,51.6098506 138.105608,52.2745256 143.506,53.5484861 C147.433559,54.5178038 151.661139,55.819459 155.861444,57.5919257 C156.052367,57.6750101 156.270565,57.7580945 156.461488,57.8688736 C161.234563,59.945983 165.73489,62.6046831 169.716998,65.3464675 C174.108226,68.337505 177.844861,71.411627 180.626882,73.8764635 C181.799695,74.9288656 182.808859,75.8704885 183.6271,76.6459427 L183.654375,76.6736375 C185.154484,78.1137667 186,79 186,79"/><path stroke="#1D1D1B" stroke-width="1.5" d="M68 56C68 56 68.1630355 55.7786365 68.4619339 55.3359094 68.8966952 54.7271596 69.630355 53.7033532 70.6900857 52.4028424 71.6954712 51.1576724 72.9997552 49.635798 74.575765 47.9755714 77.6462668 44.7658 81.7493268 41.0026197 86.9121175 37.4884734 87.6729498 36.962735 88.4881273 36.4369965 89.3033048 35.9112581 92.4009792 33.9466566 95.5529988 32.3971118 98.596328 31.1519418 102.454835 29.5470561 106.150306 28.4402384 109.465361 27.6931364 113.296695 26.8076822 116.61175 26.3926256 119.03011 26.1989325 121.747368 25.9498985 123.350551 26.0052394 123.350551 26.0052394L123.649449 26.0052394C123.649449 26.0052394 125.252632 25.9498985 127.96989 26.1989325 130.38825 26.3926256 133.703305 26.8076822 137.507466 27.6931364 140.822521 28.4402384 144.517993 29.5470561 148.376499 31.1242714 151.447001 32.3971118 154.571848 33.9466566 157.696695 35.9112581 158.511873 36.4369965 159.32705 36.962735 160.087882 37.4884734 165.223501 41.0026197 169.353733 44.7658 172.424235 47.9755714 174.190453 49.8571616 175.6306 51.5450586 176.69033 52.8732399 177.559853 53.9523872 178.15765 54.8101709 178.538066 55.3359094 178.836965 55.7786365 179 56 179 56M59 102.47 61.284041 102.47 63.6224639 102.47C65.879314 102.47 68.8159381 102.5 72.2148086 102.5L78.6318762 102.5 84.9673708 102.5C88.5293872 102.5 92.2001673 102.53 95.7893746 102.5 97.1489228 102.53 98.508471 102.53 99.8408283 102.53L106.339469 102.53 107.753399 102.53C110.717214 102.53 113.43631 102.53 115.774733 102.5 120.614725 102.5 123.741686 102.5 123.85045 102.47L124.14955 102.47C124.258314 102.5 127.385275 102.5 132.225267 102.5 134.56369 102.53 137.282786 102.53 140.21941 102.53L141.63334 102.53 148.159172 102.53 152.210625 102.53C155.799833 102.53 159.443422 102.5 163.005438 102.5L169.340933 102.5 175.758 102.5C179.156871 102.5 182.120686 102.47 184.377536 102.5 185.32922 102.47 186.144949 102.47 186.824723 102.47L189 102.47M58 112C58 112 59.2535095 112.561088 61.433526 113.469515 62.1420314 113.763418 62.9595376 114.08404 63.8587944 114.458098 66.1205615 115.366526 68.9273328 116.435264 72.0883567 117.557439 76.0123865 118.973517 80.4814203 120.443033 85.0867052 121.725518 87.8934765 122.527072 90.7819983 123.248471 93.6160198 123.836277 95.1692816 124.156898 96.6952931 124.450801 98.2213047 124.691267 99.0388109 124.82486 99.8563171 124.958452 100.646573 125.092044 102.744839 125.412666 104.761354 125.67985 106.696119 125.893598 106.83237 125.920316 106.941371 125.920316 107.077622 125.920316 110.293146 126.294375 113.263419 126.534841 115.743187 126.72187 120.620974 127.015773 123.781998 127.015773 123.863749 126.989055L124.163501 126.989055C124.218002 127.015773 127.379026 127.015773 132.284063 126.72187 134.763832 126.534841 137.706854 126.294375 140.922378 125.947035 141.058629 125.920316 141.19488 125.920316 141.331131 125.893598 143.265896 125.67985 145.282411 125.412666 147.380677 125.092044 148.170933 124.958452 148.961189 124.851578 149.778695 124.691267 151.304707 124.450801 152.830718 124.156898 154.38398 123.836277 157.218002 123.248471 160.106524 122.527072 162.940545 121.725518 167.491329 120.469751 171.933113 119.000236 175.829893 117.610876 178.990917 116.461982 181.824938 115.366526 184.113955 114.458098 185.040462 114.08404 185.912469 113.7367 186.648225 113.442797 188.773741 112.561088 190 112 190 112"/><line x1="191.485" x2="191.515" y1="120.515" y2="120.485" stroke="#1D1D1B" stroke-width="1.5"/><path stroke="#1D1D1B" stroke-width="1.5" d="M66,130.026995 C68.3441574,131.997624 70.9608912,134.103227 73.7684285,136.181835 C74.0137473,136.397795 74.3135814,136.586759 74.5861579,136.802718 C78.783835,139.853144 83.3086039,142.795589 87.7788575,145.009172 L87.7788575,145.036167 C88.896421,145.576065 90.0139844,146.088969 91.1315478,146.547882 C93.2303863,147.41172 95.3292249,148.167577 97.4008059,148.815455 C99.2815833,149.409343 101.107845,149.895252 102.879592,150.32717 L102.879592,150.354165 C103.615549,150.516135 104.351505,150.678104 105.060204,150.840074 C105.578099,150.948053 106.068737,151.056033 106.559374,151.164013 C110.211899,151.892875 113.510073,152.324794 116.20858,152.594743 C120.569803,153.026662 123.322825,152.999667 123.350083,152.999667 L123.649917,152.999667 C123.677175,152.999667 126.430197,153.026662 130.764162,152.594743 C133.462669,152.324794 136.760844,151.892875 140.413368,151.164013 C140.904006,151.056033 141.421901,150.948053 141.939796,150.840074 C142.648495,150.678104 143.384451,150.516135 144.120408,150.32717 C145.892155,149.895252 147.718417,149.409343 149.571936,148.815455 C151.643517,148.167577 153.742356,147.41172 155.841195,146.547882 C156.958758,146.088969 158.103579,145.576065 159.2484,145.009172 C163.718654,142.768594 168.216165,139.853144 172.386584,136.802718 C172.522873,136.694739 172.659161,136.586759 172.795449,136.478779 C175.766532,134.292191 178.546812,132.078608 181,130"/><line x1="55.47" x2="55.53" y1="120.47" y2="120.53" stroke="#1D1D1B" stroke-width="1.5"/><path stroke="#1D1D1B" stroke-width="1.5" d="M189.44 132.59 189.47 132.56C189.5 132.47 189.56 132.41 189.56 132.41M185.485 139.515C185.485 139.515 185.485 139.485 185.515 139.485M57.41 132.335C57.41 132.335 57.47 132.455 57.59 132.635L57.59 132.665"/><path stroke="#1D1D1B" stroke-linecap="round" stroke-width="1.5" d="M221,91 C221,91 223.09333,94.0378947 224.883679,100.058947 C226.12315,104.218947 227.803323,111.389474 227.913499,115.823158 C227.941043,117.027368 227.968586,118.258947 227.99613,119.545263 C228.023674,122.993684 227.913499,126.770526 227.362622,131.122105 C226.618939,137.088421 223.478944,167.576842 223.368768,169"/><path stroke="#1D1D1B" stroke-linecap="round" stroke-width="1.5" d="M227.991435,119.829205 C227.768737,118.843546 226.182013,114.791395 224.344754,117.036506 C223.119914,118.542373 222.312634,127.35854 223.175589,142.554107 C223.732334,152.355932 221.561028,160.816167 220.141328,165.142112 C219.501071,167.113429 219,168.235984 219,168.235984 L225.430407,172.425033 L226.293362,173 L231.916488,170.72751 C231.916488,170.72751 232,170.590613 232,169.468057 C232,168.044329 231.805139,165.087353 231.137045,158.790091 C229.940043,147.482399 230.301927,124.538462 230.5803,121.499348 C230.970021,117.337679 230.107066,108.904824 227.657388,99.6779661 C226.293362,94.5853977 224.428266,90.232073 223.982869,89.2190352 C223.899358,89.0821382 223.87152,89 223.87152,89"/><path stroke="#1D1D1B" stroke-width="1.5" d="M225.715325,121 C225.715325,121 225.205325,125.63213 225.295325,129.059371 C225.355325,131.549476 225.775325,141.242142 225.655325,144"/><path stroke="#1D1D1B" stroke-linecap="round" stroke-width="1.5" d="M226 179.003295C227.041935 179.003295 255.859677 202 255.859677 202L260 198.11285 259.451613 194.008237 234.554839 173.322076C234.554839 173.322076 234.993548 171.528007 231.593548 169.054366 231.566129 169.054366 231.53871 169.027183 231.51129 169M219.740803 165C219.740803 165 214.450951 168.654822 214.035518 169.71066 213.592389 170.79357 217.442072 173.906937 217.442072 173.906937 217.442072 173.906937 218.411416 176.370558 219.186892 176.58714 219.962368 176.803723 222.261099 177.886633 222.593446 178.834179 222.925793 179.808799 224.116702 181 224.116702 181 224.116702 181 226 180.133672 226 179.267343"/><polyline stroke="#1D1D1B" stroke-linecap="round" stroke-width="1.5" points="231 178 254 197.909 253.225 200"/><polyline stroke="#1D1D1B" stroke-linecap="round" stroke-width="1.5" points="231 175 254 193.903 253.229 196"/><polyline stroke="#1D1D1B" stroke-linecap="round" stroke-width="1.5" points="235 176 258 194.522 257.116 197"/><line x1="233" x2="227" y1="174.12" y2="176.88" stroke="#1D1D1B" stroke-linecap="round" stroke-width="1.5"/><path stroke="#1D1D1B" stroke-linecap="round" stroke-width="1.5" d="M225.5357 172.000309C225.5657 171.972642 229.0157 173.798649 226.6157 178.972333L226.5857 179M22 81 15.3644213 86.136289C14.2854655 86.9737274 13.5571703 88.1740558 13.2874313 89.5139573L13.098614 90.4909688 12.046632 95.683087C11.9117625 96.3251232 12.0736059 96.9950739 12.4782144 97.5254516L12.828875 97.9720854 12.8558489 98"/><path stroke="#1D1D1B" stroke-linecap="round" stroke-width="1.5" d="M13,97 C13,97 13.8611111,95.6388889 15.0833333,95.5555556 C16.25,95.4444444 22.9722222,91 24,90"/><path stroke="#1D1D1B" stroke-width="1.5" d="M24,90 L24,90.0262391 C23.9711538,90.0524781 23.9423077,90.0524781 23.9423077,90.0787172 C23.3076923,90.8921283 18.2307692,97.3731778 18,99"/><path stroke="#1D1D1B" stroke-linecap="round" stroke-width="1.5" d="M19 99 18.8641564 99.9569041 18.1577694 105.022867 15.0333656 107.302551 14.2726411 108.794195 6.80124064 114.704485C6.31220351 115.098505 5.63298528 115.098505 5.17111689 114.704485L1.28598863 111.580475C.878457693 111.2146.715445318 110.623571.905626422 110.08883L.987132609 109.835532.199239465 108.681618C-.126785284 108.203166-.0452790965 107.527704.389420569 107.161829L1.47616973 106.148637 7.15443411 100.913808M.558303127 106 .178649856 105.467681C-.0997625419 105.041825-.0491421059 104.48289.305200946 104.163498L.988576833 103.551331 6 99M1.4542094 103 1.15181965 102.579869C.904409851 102.212254.959389806 101.739606 1.31675951 101.450766L2.38886864 100.636761 1.89404904 99.9015317C1.64663925 99.5339168 1.72910918 99.0350109 2.11396887 98.7724289L13 91"/><path stroke="#1D1D1B" stroke-linecap="round" stroke-width="1.5" d="M1,109 L9.17794971,102.255915 C9.61121857,101.894164 10.2340426,101.920003 10.6402321,102.307594 L15,106.674454"/><polyline stroke="#1D1D1B" stroke-linecap="round" stroke-width="1.5" points="18 100 13.75 97 12 98.392 11 99.184"/></g></svg>