<svg xmlns="http://www.w3.org/2000/svg" width="110.75" height="259.375" viewBox="0 0 110.75 259.375"><g fill="none" fill-rule="evenodd" stroke="#03FFBB" transform="translate(.875 .5)"><g stroke-width="1.75" transform="translate(0 150)"><path d="M64.1613793,2.1935218 C64.1613793,3.37443493 59.8151724,4.33140576 54.4537931,4.33140576 C49.0924138,4.33140576 44.7475862,3.37443493 44.7475862,2.1935218 C44.7475862,1.01260867 49.0924138,0.0556378389 54.4537931,0.0556378389 C59.8151724,0.0556378389 64.1613793,1.01260867 64.1613793,2.1935218 Z M90.8593103,14.9498873 C90.8593103,19.3772683 74.56,22.9672999 54.4537931,22.9672999 C34.3475862,22.9672999 18.0496552,19.3772683 18.0496552,14.9498873 C18.0496552,10.5225063 34.3475862,6.93386567 54.4537931,6.93386567 C74.56,6.93386567 90.8593103,10.5225063 90.8593103,14.9498873 Z M101.606897,27.7076438 C101.606897,33.4411231 80.4965517,38.0910554 54.4537931,38.0910554 C28.4124138,38.0910554 7.30206897,33.4411231 7.30206897,27.7076438 C7.30206897,21.9727735 28.4124138,17.3242321 54.4537931,17.3242321 C80.4965517,17.3242321 101.606897,21.9727735 101.606897,27.7076438 Z M106.910345,40.4640093 C106.910345,46.8442784 83.4248276,52.0158156 54.4537931,52.0158156 C25.4827586,52.0158156 1.99724138,46.8442784 1.99724138,40.4640093 C1.99724138,34.085131 25.4827586,28.9135939 54.4537931,28.9135939 C83.4248276,28.9135939 106.910345,34.085131 106.910345,40.4640093 Z M108.908966,53.2217657 C108.908966,59.8440595 84.5282759,65.21172 54.4537931,65.21172 C24.3793103,65.21172 0,59.8440595 0,53.2217657 C0,46.598081 24.3793103,41.2304205 54.4537931,41.2304205 C84.5282759,41.2304205 108.908966,46.598081 108.908966,53.2217657 Z M109,53.9993045 C109,83.8225771 84.6013793,108 54.5048276,108 C24.4068966,108 0.00827586207,83.8225771 0.00827586207,53.9993045 C0.00827586207,24.1760319 24.4068966,0 54.5048276,0 C84.6013793,0 109,24.1760319 109,53.9993045 Z"/><path d="M46.0223124,96.2125524 C46.0223124,95.2510482 49.6102356,94.4712235 54.0379154,94.4712235 C58.464191,94.4712235 62.0521142,95.2510482 62.0521142,96.2125524 C62.0521142,97.1740567 58.464191,97.9538813 54.0379154,97.9538813 C49.6102356,97.9538813 46.0223124,97.1740567 46.0223124,96.2125524 Z M23.9779997,85.8176852 C23.9779997,82.2106467 37.4365736,79.2856054 54.0379154,79.2856054 C70.6392573,79.2856054 84.0964269,82.2106467 84.0964269,85.8176852 C84.0964269,89.4261212 70.6392573,92.349765 54.0379154,92.349765 C37.4365736,92.349765 23.9779997,89.4261212 23.9779997,85.8176852 Z M15.1043845,75.4242155 C15.1043845,70.7508576 32.535653,66.963537 54.0379154,66.963537 C75.5401779,66.963537 92.9700421,70.7508576 92.9700421,75.4242155 C92.9700421,80.0961758 75.5401779,83.8834964 54.0379154,83.8834964 C32.535653,83.8834964 15.1043845,80.0961758 15.1043845,75.4242155 Z M10.72445,65.0293482 C10.72445,59.8305171 30.1160868,55.6169483 54.0379154,55.6169483 C77.9583398,55.6169483 97.3499766,59.8305171 97.3499766,65.0293482 C97.3499766,70.2267819 77.9583398,74.4403507 54.0379154,74.4403507 C30.1160868,74.4403507 10.72445,70.2267819 10.72445,65.0293482 Z M9.07583086,54.634481 C9.07583086,49.2385974 29.2061164,44.864312 54.0379154,44.864312 C78.8697145,44.864312 99,49.2385974 99,54.634481 C99,60.0303646 78.8697145,64.40465 54.0379154,64.40465 C29.2061164,64.40465 9.07583086,60.0303646 9.07583086,54.634481 Z M9,54 C9,29.699657 29.1457326,10 53.9957872,10 C78.8472461,10 98.9915743,29.699657 98.9915743,54 C98.9915743,78.300343 78.8472461,98 53.9957872,98 C29.1457326,98 9,78.300343 9,54 Z"/></g><g transform="translate(10.906)"><path d="M41,0 C41,0 42.4124887,0.0272057787 43.9122194,0.165327424 C51.8325423,0.89151244 76.4596989,5.1230574 80.0470048,29.8677595 C84.3114745,59.3002266 80.2630325,53.545158 80.2630325,53.545158 C80.2630325,53.545158 79.3220658,47.0597189 79.1060381,45.8940559 C78.8900104,44.7283929 78.8900104,42.3991597 75.4896515,41.5976356 C72.0913697,40.7961115 53.9429666,37.3723689 41,37.3723689"/><path d="M74 52C74.1781647 50.9167103 79.6009437 46.3279204 75.4218579 40M80 51C80 51 79.7717593 54.7302915 79.0081905 56.5829334 75.8605438 64.2039814 72.0468494 79.3731387 72.0178006 80.0358385 71.9763023 81.0319722 66.7267664 85.289506 65.7972043 85.8646794 64.8676422 86.4398528 61.8652397 85.2186513 61.9357868 81.4862759 61.9357868 81.4862759 62.004259 77.0620251 61 73.6860072M56.023633 31.2536282 56.267615 30.6815673C56.3168214 30.5671551 56.4377873 30.4830285 56.5833564 30.4611556L59.5090899 30.0287448C59.7530719 29.9934117 60.0032047 29.9900466 60.2471867 30.0220147L71.3965483 31.4319766C71.8353058 31.4875001 72.1059413 31.8559747 71.9603722 32.2008937L71.7881496 32.606384C71.6794854 32.8638114 71.3698948 33.0253344 71.0398015 32.9967314L56.3680781 31.7011817C56.1035935 31.6776263 55.9354714 31.4588971 56.023633 31.2536282ZM41 38.0164756C41 38.0164756 56.596558 37.415144 70.8572048 43.4782253 74.1457591 44.8758029 72.6807645 52.2576665 72.6397856 53"/><path d="M41 38C64.1083785 39.145335 71.3154881 46.1629381 72.9145331 48.1663037 73.107414 48.4089594 72.9560129 48.7564424 72.6386926 48.8107973L71.5374048 48.9932743C71.3880777 49.0185105 71.2387505 48.9719206 71.1391991 48.8670934 69.8636962 47.5451051 60.4166792 38.8017345 41 38.8017345M41 68.0078445C41 68.0078445 42.0016337 67.93655 42.5024506 68.2238249 43.0053455 68.5131968 44.3644087 69.5972926 45.72555 69.5972926 47.0846131 69.5972926 53.5993885 69.018549 54.0295507 69.018549 54.4597129 69.018549 58.3955931 68.079139 57.967509 70.6813885 57.7576231 71.9437207 57.3939594 75.0869697 56.8931425 75.9550852 56.3923257 76.8211037 53.7427759 77.4711419 52.31098 77.6158278 50.879184 77.7605137 44.8652256 78.4105519 44.8652256 78.4105519 44.8652256 78.4105519 42.645838 80 41 80M61.0206839 50.0022099 53.7560863 50.6368155C53.2230321 50.6833408 52.874268 51.1839534 53.0427052 51.6622339L53.3280576 52.4643306C53.4469545 52.801174 53.793737 53.0207736 54.1702437 52.9984414L61.4685287 52.5629643C61.8172928 52.5424932 62.063013 52.233565 61.9857301 51.9134707L61.6290395 50.4172159C61.5656278 50.154813 61.3060364 49.9780168 61.0206839 50.0022099ZM61.4063648 57.6815025 52.7409751 57C52.2750289 57.0260574 51.9341418 57.4489899 52.010791 57.9059974L52.131816 58.6135573C52.1903114 58.9683395 52.4888397 59.2369316 52.8519147 59.2609846L62.0921731 59.9986108C62.5621535 60.0286771 63.0502877 59.5656563 62.9958264 59.0986267L62.8324427 58.6356059C62.7880669 58.2387309 61.8077644 57.6594539 61.4063648 57.6815025ZM58 71C58 71 70.9214746 51.4123788 74 49M57 76C57 76 60.365931 75.463674 62.2224759 70.6367404 66.4444444 59.6652851 73.31862 52.3362008 74 49M43 0C43 0 54.7967146 7.79561095 55 38M52 1C52 1 66.9226213 10.3159433 68 39M59 3C59 3 77.1226428 10.5803374 76.999374 41"/><path d="M41 24C41 24 44.8096525 24 48.3133005 24.2519244 53.7597687 24.6424073 63.8045182 26.0090973 79 30M41 13C41 13 44.8469958 13 48.3849876 13.2712302 53.8848436 13.6916371 70.3864854 16.7655796 77 20M41 6C41.6007695 6.0240843 46.8937555 6.20471651 49.054454 6.38936277 54.5401006 6.86302057 59.385617 7.78424486 69 10M41 0C41 0 39.5875113.0272057787 38.0877806.165327424 30.1674577.89151244 5.54030113 5.1230574 1.95299518 29.8677595-2.3114745 59.3002266 1.73696749 53.545158 1.73696749 53.545158 1.73696749 53.545158 2.67793425 47.0597189 2.89396194 45.8940559 3.10998963 44.7283929 3.10998963 42.3991597 6.51034854 41.5976356 9.90863027 40.7961115 28.0570334 37.3723689 41 37.3723689"/><path d="M8 52C7.82183533 50.9167103 2.39905628 46.3279204 6.57814214 40M2 51C2 51 2.22824069 54.7302915 2.99180954 56.5829334 6.13945615 64.2039814 9.9531506 79.3731387 9.98219941 80.0358385 10.0236977 81.0319722 15.2732336 85.289506 16.2027957 85.8646794 17.1323578 86.4398528 20.1347603 85.2186513 20.0642132 81.4862759 20.0642132 81.4862759 19.995741 77.0620251 21 73.6860072M25.976367 31.2536282 25.732385 30.6815673C25.6831786 30.5671551 25.5622127 30.4830285 25.4166436 30.4611556L22.4909101 30.0287448C22.2469281 29.9934117 21.9967953 29.9900466 21.7528133 30.0220147L10.6034517 31.4319766C10.1646942 31.4875001 9.89405873 31.8559747 10.0396278 32.2008937L10.2118504 32.606384C10.3205146 32.8638114 10.6301052 33.0253344 10.9601985 32.9967314L25.6319219 31.7011817C25.8964065 31.6776263 26.0645286 31.4588971 25.976367 31.2536282ZM41 38.0164756C41 38.0164756 25.403442 37.415144 11.1427952 43.4782253 7.85424088 44.8758029 9.31923548 52.2576665 9.36021435 53"/><path d="M41 38C17.8916215 39.145335 10.6845119 46.1629381 9.0854669 48.1663037 8.89258598 48.4089594 9.04398713 48.7564424 9.36130735 48.8107973L10.4625952 48.9932743C10.6119223 49.0185105 10.7612495 48.9719206 10.8608009 48.8670934 12.1363038 47.5451051 21.5833208 38.8017345 41 38.8017345M41 68.0078445C41 68.0078445 39.9983663 67.93655 39.4975494 68.2238249 38.9946545 68.5131968 37.6355913 69.5972926 36.27445 69.5972926 34.9153869 69.5972926 28.4006115 69.018549 27.9704493 69.018549 27.5402871 69.018549 23.6044069 68.079139 24.032491 70.6813885 24.2423769 71.9437207 24.6060406 75.0869697 25.1068575 75.9550852 25.6076743 76.8211037 28.2572241 77.4711419 29.68902 77.6158278 31.120816 77.7605137 37.1347744 78.4105519 37.1347744 78.4105519 37.1347744 78.4105519 39.354162 80 41 80M20.9793161 50.0022099 28.2439137 50.6368155C28.7769679 50.6833408 29.125732 51.1839534 28.9572948 51.6622339L28.6719424 52.4643306C28.5530455 52.801174 28.206263 53.0207736 27.8297563 52.9984414L20.5314713 52.5629643C20.1827072 52.5424932 19.936987 52.233565 20.0142699 51.9134707L20.3709605 50.4172159C20.4343722 50.154813 20.6939636 49.9780168 20.9793161 50.0022099ZM20.5936352 57.6815025 29.2590249 57C29.7249711 57.0260574 30.0658582 57.4489899 29.989209 57.9059974L29.868184 58.6135573C29.8096886 58.9683395 29.5111603 59.2369316 29.1480853 59.2609846L19.9078269 59.9986108C19.4378465 60.0286771 18.9497123 59.5656563 19.0041736 59.0986267L19.1675573 58.6356059C19.2119331 58.2387309 20.1922356 57.6594539 20.5936352 57.6815025ZM24 71C24 71 11.0785254 51.4123788 8 49M25 76C25 76 21.634069 75.463674 19.7775241 70.6367404 15.5555556 59.6652851 8.68138001 52.3362008 8 49M37 0C37 0 25.2032854 7.79561095 25 38M30 1C30 1 15.0773787 10.3159433 14 39M23 3C23 3 4.87735718 10.5803374 5.00062601 41"/><path d="M41 24C41 24 37.1903475 24 33.6866995 24.2519244 28.2402313 24.6424073 18.1954818 26.0090973 3 30M41 13C41 13 37.1530042 13 33.6150124 13.2712302 28.1151564 13.6916371 11.6135146 16.7655796 5 20M41 6C40.3992305 6.0240843 35.1062445 6.20471651 32.945546 6.38936277 27.4598994 6.86302057 22.614383 7.78424486 13 10M11 81 11.4492355 85.3173049C11.4492355 85.3173049 12.3144297 85.2165275 12.9015258 85.5551396 13.486245 85.8937518 16.0414203 88 16.6285164 88 17.2132356 88 16.9327605 87.2240138 16.9327605 87.2240138L14.7055984 84.7610135 13.3222384 82.8139937 11 81ZM17 88C17 88 18.6830626 89.618202 18.9113289 90.0527192 19.1395953 90.4855716 18.8550661 91 18.8550661 91M18 93.9744431 16.078639 95C16.078639 95 9.89474414 86.8504103 10.001363 86.7744431 10.1057607 86.7005862 11.1053126 86 11.1053126 86L12.3825179 86.0253224"/><polyline points="11 86 13.948 88.102 17 92.198 16.187 95"/><path d="M17,94.2793096 L17.9980442,92 L19.1891258,92.2709524 C19.1891258,92.2709524 20.8258361,95.3838027 24.8221201,98.0354133 C27.6232153,99.8948502 33.2767456,102.389267 34.8805985,103.075956 C36.486505,103.762644 39.9426951,105.427657 43.959515,106.60661 C46.2164092,107.270547 54.1350479,108.687359 55.0571093,108.453637 C55.9771172,108.221983 58.1313319,107.388443 58.1313319,107.388443 L59,108.339878 L57.2010561,110.979079 C57.2010561,110.979079 53.4573636,111.107316 51.9541365,110.72881 C51.4530608,110.602641 45.6516722,109.638795 43.8650499,109.212718 C42.8464698,108.968654 37.445531,106.904451 36.6774888,106.939613 C35.9115001,106.974775 30.3811852,107.115422 30.3811852,107.115422 C30.3811852,107.115422 27.1016038,107.605618 27.085175,105.040878 C27.0666927,102.476137 30.572169,104.163902 30.781635,104.199064 C30.9911011,104.234225 32.5620966,104.461743 33.0159398,104.039802 C33.4677293,103.61786 34.3055936,104.532066 34.3055936,104.532066 C34.3055936,104.532066 35.1660473,106.499057 27.9127714,105.791685"/><polyline points="34.48 104.314 35.536 104.178 34.464 103.686"/><path d="M33 104C33 104 24.4556274 100.537022 22.3278137 98.9833611 20.2 97.4276206 17 94 17 94M55 110.727099C55 110.727099 55.665766 112.768766 56.0743042 113.084924 56.4850041 113.403308 57.3085653 114 57.3085653 114L59.1134828 112.468193 63 108.556298 62.1440151 107.783715 60.976763 107C60.976763 107 59.2388544 107.028944 58.7546609 107.850509M61 104 59.9511845 105.108374C59.264178 104.995074 58 106 58 106M60.021 105.666 60.839 106.728C61.029 106.6 61.979 105.272 61.979 105.272"/><line x1="62.468" x2="63.532" y1="107.702" y2="106.298"/><polyline points="63 103.177 65.585 105 69.501 100.117 70.423 98.928 71 96.322 67.862 94"/><polyline points="62 104.823 64.451 107 65 106.093 62.569 104"/><path d="M67,95.4964322 L67.7102238,96 L67.898283,95.7573904 C67.898283,95.7573904 67.6161942,93.3639144 67.9462982,92.7196738 C68.2784028,92.077472 69.8829084,88 69.8829084,88 C69.8829084,88 70.0129494,91.4495413 69.9989449,91.7104995 C69.9849405,91.9734964 69.8909109,94.285423 69.8909109,94.285423"/><path d="M69.7697685 92.7442061C69.8489539 92.5807446 70.8954855 89.9674556 70.9810914 89.5713757 71.0688374 89.1773915 70.8227205 87.3541667 70.8227205 87.3541667L69.134145 87 67.4498498 91.7487673C67.4498498 91.7487673 65.8147779 92.4047091 65.7783954 93.4211045 65.7420129 94.4395957 65.9367662 95.1982249 65.9367662 95.1982249L65.3717676 95.8981755C65.3717676 95.8981755 64.6869207 96.2397682 62.8121524 98.3836292 60.9373841 100.529586 60 102.109714 60 102.109714 60 102.109714 60.965206 103.779956 61.0700732 103.813486 61.1749404 103.849112 61.6479128 104 61.6479128 104L62.133726 103.463511 61.6650339 102.76356 66.7842642 96.1852811M69.39 94C69.442 94.0018993 70.61 94.8300095 70.61 94.8300095L69.636 96"/><path d="M70.2468516 93.7528324C70.2848516 93.7091209 71.0288516 92.8686683 71.2728516 93.0176847 71.5168516 93.168688 71.8888516 93.534275 71.7028516 94.0210619 71.5188516 94.5078489 70.4188516 96 70.4188516 96M71.5511984 87.8956958C71.5511984 87.8956958 72.8638031 88.1034921 73.373172 87.9324931 73.882541 87.7614941 74.2264739 86.9432962 74.256949 86.3328947 74.2896008 85.7246577 74.7489036 82.7657253 74.9034557 81.3241387 75.0580078 79.8803874 75.0297096 78.1184482 74.7989698 78.0123855 74.56823 77.9063228 73.8107069 78.5145599 73.7497568 78.5773316 73.6909834 78.6401034 72.2564785 79.1595941 72.2564785 79.1595941 72.2564785 79.1595941 71.0287687 83.4692023 70.8132665 83.8047067 70.5977642 84.1423756 69.269922 84.1531983 69.269922 84.1531983L69 87.3523952 69.7640535 87.6511023"/><path d="M70 87C70 87 71.132772 86.3931681 71.2707254 85.9249833 71.4067358 85.4567984 71.4727979 82.0951105 71.5699482 81.7394508 71.6670984 81.3817816 72.5608808 78.3255191 73 78M69.0797491 84.632C69.0797491 84.632 68.7917491 83.748 68.9897491 83.368M71.7268348 79C71.7268348 79 72.4488348 76.9595344 72.2328348 76M41.0388651 0C41.0388651 0 40.8828651 11.7916157 41.0128651 37M24 75C24 75 22.1073601 74.4958111 21.0418502 71.3560127 20.6898799 70.3172824 22.6737122 71.8821229 22.6737122 71.8821229L23.7600203 73.3946895"/></g></g></svg>