<svg width="247" height="48" viewBox="0 0 247 48" fill="none" xmlns="http://www.w3.org/2000/svg">
<g clip-path="url(#clip0_908_379)">
<path d="M33.2037 15.8691C32.1048 15.8429 31.032 15.7905 29.9331 15.7643C30.0115 18.7234 30.0115 21.6563 29.9331 24.6154C31.032 24.5892 32.1048 24.563 33.2037 24.5368C33.1252 26.6318 33.0205 28.7267 32.8374 30.8478C30.7442 31.0311 28.651 31.1358 26.5316 31.2144C26.5577 30.1408 26.6101 29.0671 26.6101 27.9935C23.6534 28.072 20.6967 28.072 17.74 27.9935C17.7662 29.0671 17.7924 30.1408 17.8185 31.2144C15.7253 31.1358 13.6321 31.0311 11.5127 30.8478C11.3296 28.7529 11.2249 26.6579 11.1464 24.5368C12.2453 24.563 13.3181 24.6154 14.4171 24.6416C14.3386 21.6825 14.3386 18.7496 14.4171 15.7905C13.3181 15.8167 12.2453 15.8429 11.1464 15.8691C11.2249 13.7741 11.3296 11.6792 11.5127 9.5581C13.6059 9.3748 15.6992 9.27005 17.8185 9.19149C17.7924 10.2913 17.74 11.365 17.7139 12.4648C20.6705 12.3863 23.6272 12.3863 26.5839 12.4648C26.5577 11.365 26.5316 10.2913 26.5054 9.19149C28.5986 9.27005 30.6918 9.3748 32.8112 9.5581C33.0205 11.653 33.1514 13.7741 33.2037 15.8691ZM44.4024 20.1637C44.4024 27.0769 42.7802 32.838 38.2013 36.4255C34.1195 39.5417 28.8603 40.3797 22.2143 40.3797C15.4637 40.3797 10.2568 39.5417 6.175 36.347C1.56992 32.838 0 27.0769 0 20.1637C0 13.3028 1.56992 7.4108 6.20117 3.9018C10.2829 0.785597 15.5422 0 22.1881 0C28.9388 0 34.1457 0.864157 38.2274 3.9018C42.7802 7.48936 44.4024 13.3028 44.4024 20.1637ZM40.4515 20.5827C40.4515 7.62029 34.8521 2.17349 22.2405 2.17349C9.70731 2.17349 3.95095 6.46809 3.95095 19.7447C3.95095 32.707 9.55032 38.2324 22.162 38.2324C34.6428 38.2324 40.4515 33.8592 40.4515 20.5827Z" fill="white"/>
<path d="M22.1881 0.576105C25.8251 0.576105 28.651 0.83797 31.0843 1.3617C33.7794 1.96399 35.9772 2.9329 37.8873 4.34697C41.9167 7.48936 43.853 12.6481 43.853 20.1375C43.853 27.6268 41.8906 32.7856 37.8873 35.928C34.3288 38.6514 29.6452 39.8036 22.2405 39.8036C18.5773 39.8036 15.7515 39.5417 13.3443 38.9918C10.6493 38.3633 8.42521 37.3683 6.54131 35.9018C4.42193 34.2782 2.90434 32.1309 1.91006 29.3552C1.02045 26.8151 0.575636 23.8036 0.575636 20.1637C0.575636 12.5957 2.53803 7.4108 6.54131 4.37316C8.42521 2.9329 10.6493 1.96399 13.3443 1.3617C15.7253 0.83797 18.525 0.576105 22.1881 0.576105ZM22.162 38.8085C28.8864 38.8085 33.3869 37.5254 36.3697 34.802C37.9658 33.3355 39.1171 31.4763 39.8759 29.1195C40.6346 26.7889 41.001 23.9869 41.001 20.5827C41.001 13.9051 39.5095 9.1653 36.4482 6.12766C33.4654 3.06383 28.808 1.59738 22.2405 1.59738C15.4898 1.59738 10.9632 2.85434 8.00657 5.55156C4.84057 8.43208 3.37532 12.9362 3.37532 19.7447C3.37532 32.9427 9.18401 38.8085 22.162 38.8085ZM17.2691 9.79378C17.2429 10.6841 17.2167 11.5483 17.1906 12.4386L17.1644 13.0409L17.7662 13.0147C19.2315 12.9885 20.6967 12.9624 22.162 12.9624C23.6272 12.9624 25.1186 12.9885 26.6101 13.0147L27.2119 13.0409L27.1857 12.4386C27.1595 11.5483 27.1334 10.6579 27.1072 9.79378C28.8341 9.87234 30.561 9.97709 32.2618 10.108C32.3926 11.8363 32.4973 13.5646 32.5757 15.2668C31.6861 15.2406 30.7965 15.2144 29.9331 15.1882L29.3313 15.162L29.3574 15.7643C29.4359 18.6972 29.4359 21.6563 29.3574 24.563L29.3313 25.1653L29.9331 25.1391C30.7965 25.1129 31.6861 25.0867 32.5757 25.0606C32.4973 26.7889 32.3926 28.5172 32.2618 30.2193C30.5349 30.3502 28.8079 30.455 27.1072 30.5336C27.1334 29.6694 27.1595 28.7791 27.1857 27.9149L27.2119 27.3126L26.6101 27.3388C25.1448 27.365 23.6796 27.3912 22.2143 27.3912C20.7491 27.3912 19.2576 27.365 17.7924 27.3388L17.1906 27.3126L17.2167 27.9149C17.2429 28.7791 17.2691 29.6694 17.2952 30.5336C15.5683 30.455 13.8414 30.3502 12.1407 30.2193C12.0099 28.5172 11.9052 26.7627 11.8267 25.0606C12.7163 25.0867 13.5798 25.1129 14.4694 25.1391L15.0712 25.1653L15.045 24.563C14.9665 21.6301 14.9665 18.671 15.045 15.7643L15.0712 15.162L14.4432 15.1882C13.5536 15.2144 12.6902 15.2406 11.8005 15.2668C11.879 13.5385 11.9837 11.8101 12.1145 10.108C13.8153 9.9509 15.5422 9.87234 17.2691 9.79378ZM22.1881 0C15.5422 0 10.2829 0.785597 6.20117 3.9018C1.56992 7.4108 0 13.3028 0 20.1637C0 27.0769 1.56992 32.838 6.20117 36.3732C10.2829 39.5417 15.4898 40.3797 22.2405 40.3797C28.8864 40.3797 34.1457 39.5417 38.2274 36.4255C42.8064 32.8642 44.4286 27.0769 44.4286 20.1637C44.4286 13.3028 42.8064 7.46318 38.2274 3.9018C34.1457 0.864157 28.9126 0 22.1881 0ZM22.1881 38.2324C22.162 38.2324 22.162 38.2324 22.1881 38.2324C9.57649 38.2324 3.97712 32.707 3.97712 19.7447C3.95095 6.46809 9.70731 2.17349 22.2405 2.17349C34.8521 2.17349 40.4515 7.62029 40.4515 20.5827C40.4515 33.8592 34.6428 38.2324 22.1881 38.2324ZM17.8709 9.19149C15.7777 9.27005 13.6844 9.3748 11.565 9.5581C11.3819 11.653 11.2772 13.748 11.1987 15.8691C12.2977 15.8429 13.3704 15.7905 14.4694 15.7905C14.3909 18.7234 14.3909 21.6563 14.4694 24.6154C13.3704 24.5892 12.2977 24.563 11.1987 24.5106C11.2772 26.6056 11.3819 28.7005 11.565 30.8216C13.6583 31.0049 15.7515 31.1097 17.8709 31.1882C17.8447 30.1146 17.7924 29.0409 17.7924 27.9673C19.2838 27.9935 20.7491 28.0196 22.2405 28.0196C23.7057 28.0196 25.171 27.9935 26.6624 27.9673C26.6362 29.0409 26.6101 30.1146 26.5839 31.1882C28.6771 31.1097 30.7703 31.0049 32.8897 30.8216C33.0729 28.7267 33.1775 26.6318 33.256 24.5106C32.1571 24.5368 31.0843 24.5892 29.9854 24.5892C30.0639 21.6301 30.0639 18.6972 29.9854 15.7381C31.0843 15.7643 32.1571 15.7905 33.256 15.8429C33.1775 13.748 33.0729 11.653 32.8897 9.53192C30.7965 9.34861 28.7033 9.24386 26.5839 9.1653C26.6101 10.2651 26.6624 11.3388 26.6624 12.4386C25.171 12.4124 23.7057 12.3863 22.2143 12.3863C20.7491 12.3863 19.2838 12.4124 17.7924 12.4386C17.7924 11.365 17.8447 10.2651 17.8709 9.19149Z" fill="white"/>
<path d="M63.7133 22.8873V28.6221H59.3438V11.4961H74.1271L73.5253 15.0575H63.7133V19.3783H73.5253L72.9235 22.8611L63.7133 22.8873Z" fill="white"/>
<path d="M99.8479 27.2348C97.807 28.5965 95.1643 28.9893 91.8151 28.9893C88.4398 28.9893 85.8233 28.6227 83.7562 27.2086C81.4275 25.6636 80.6426 23.1235 80.6426 20.0597C80.6426 17.0482 81.4275 14.4296 83.7562 12.8846C85.7971 11.5229 88.4398 11.1562 91.789 11.1562C95.1643 11.1562 97.7808 11.5229 99.8479 12.8846C102.15 14.4558 102.962 17.022 102.962 20.0597C102.962 23.0973 102.15 25.6636 99.8479 27.2348ZM91.8151 14.6129C87.2101 14.6129 85.1168 15.9222 85.1168 19.9288C85.1168 23.8567 87.1577 25.5327 91.789 25.5327C96.3679 25.5327 98.4873 24.1972 98.4873 20.1906C98.4873 16.2626 96.4464 14.6129 91.8151 14.6129Z" fill="white"/>
<path d="M124.077 28.6221L119.551 22.7301C119.158 22.7563 118.74 22.7563 118.347 22.7563H115.547V28.6221H111.178V11.4961H119.394C122.69 11.4961 125.098 11.6532 126.72 12.884C127.95 13.8005 128.525 15.136 128.525 17.0215C128.525 19.0378 127.897 20.3733 126.563 21.2899C125.935 21.735 125.176 22.0493 124.287 22.2064L129.336 28.5959L124.077 28.6221ZM119.42 14.7956H115.547V19.6401H119.472C122.769 19.6401 124.103 19.2211 124.103 17.1786C124.103 14.9527 122.324 14.7956 119.42 14.7956Z" fill="white"/>
<path d="M141.868 28.6485V14.9267H135.039V11.5225H153.119L152.517 14.9267H146.238V28.6485H141.868Z" fill="white"/>
<path d="M173.659 28.6485L169.133 22.7565C168.74 22.7827 168.322 22.7827 167.929 22.7827H165.129V28.6485H160.76V11.5225H168.976C172.272 11.5225 174.68 11.6796 176.302 12.9103C177.532 13.8269 178.107 15.1624 178.107 17.0478C178.107 19.0642 177.479 20.3997 176.145 21.3162C175.517 21.7614 174.758 22.0756 173.869 22.2328L178.918 28.6223L173.659 28.6485ZM169.002 14.7958H165.129V19.6403H169.054C172.351 19.6403 173.685 19.2213 173.685 17.1788C173.685 14.9529 171.906 14.7958 169.002 14.7958Z" fill="white"/>
<path d="M187.396 28.6485V11.5225H201.421L200.845 14.9267H191.766V18.2524H200.715L200.139 21.5519H191.766V25.218H201.447L200.845 28.6485H187.396Z" fill="white"/>
<path d="M218.403 18.0431C217.2 17.8336 215.839 17.6765 214.897 17.4147C214.086 17.2052 213.798 16.8124 213.798 16.0791C213.798 15.3983 214.034 14.9793 214.871 14.7698C215.63 14.6127 216.65 14.5603 217.54 14.5603C219.45 14.5603 221.229 14.6389 223.165 14.8484L223.715 11.6536C221.569 11.3394 219.633 11.1299 217.618 11.1299C215.839 11.1299 213.824 11.2608 212.333 11.9679C210.371 12.9106 209.664 14.5341 209.664 16.5505C209.664 19.7715 211.574 20.976 215.918 21.7093C217.2 21.9449 218.639 22.1282 219.607 22.3901C220.444 22.652 220.732 23.0448 220.732 23.8042C220.732 24.5374 220.523 25.0088 219.633 25.1921C218.9 25.3492 217.618 25.4539 216.127 25.4539C214.505 25.4539 212.281 25.3492 210.371 25.1659L209.795 28.4916C212.15 28.832 214.4 28.9629 216.676 28.9629C218.586 28.9629 220.758 28.7535 222.25 28.0202C224.212 27.0513 224.945 25.4016 224.945 23.3328C224.945 19.8762 222.747 18.724 218.403 18.0431Z" fill="white"/>
<path d="M240.591 18.0431C239.387 17.8336 238.027 17.6765 237.085 17.4147C236.273 17.2052 235.986 16.8124 235.986 16.0791C235.986 15.3983 236.221 14.9793 237.058 14.7698C237.817 14.6127 238.838 14.5603 239.727 14.5603C241.637 14.5603 243.417 14.6389 245.353 14.8484L245.902 11.6536C243.757 11.3394 241.821 11.1299 239.806 11.1299C238.027 11.1299 236.012 11.2608 234.52 11.9679C232.558 12.9106 231.852 14.5341 231.852 16.5505C231.852 19.7715 233.762 20.976 238.105 21.7093C239.387 21.9449 240.826 22.1282 241.794 22.3901C242.632 22.652 242.919 23.0448 242.919 23.8042C242.919 24.5374 242.71 25.0088 241.821 25.1921C241.088 25.3492 239.806 25.4539 238.314 25.4539C236.692 25.4539 234.468 25.3492 232.558 25.1659L231.982 28.4916C234.337 28.832 236.587 28.9629 238.864 28.9629C240.774 28.9629 242.946 28.7535 244.437 28.0202C246.399 27.0513 247.132 25.4016 247.132 23.3328C247.132 19.8762 244.934 18.724 240.591 18.0431Z" fill="white"/>
<path d="M72.426 46.0366H71.1701V47.8958H70.3066V42.4229H72.4784C73.682 42.4229 74.5716 43.1299 74.5716 44.2297C74.5716 45.0415 74.1006 45.6438 73.368 45.9057L74.8856 47.8958H73.8389L72.426 46.0366ZM71.1701 45.251H72.4522C73.1848 45.251 73.7343 44.8582 73.7343 44.2297C73.7343 43.6012 73.1848 43.2084 72.4522 43.2084H71.1701V45.251Z" fill="white"/>
<path d="M79.0471 43.2346V44.8058H81.7421V45.5914H79.0471V47.0841H82.0561V47.8958H78.1836V42.4229H82.0561V43.2084L79.0471 43.2346Z" fill="white"/>
<path d="M89.3013 46.5865H86.6586L86.1091 47.8958H85.1934L87.5744 42.4229H88.3855L90.7666 47.8958H89.8508L89.3013 46.5865ZM88.9873 45.8271L87.993 43.4703L86.9988 45.8271H88.9873Z" fill="white"/>
<path d="M97.8862 47.0841V47.8958H94.1445V42.4229H95.008V47.0841H97.8862Z" fill="white"/>
<path d="M106.807 43.2346V44.8058H109.502V45.5914H106.807V47.0841H109.816V47.8958H105.943V42.4229H109.816V43.2084L106.807 43.2346Z" fill="white"/>
<path d="M117.456 44.0203H116.619C116.514 43.4442 116.122 43.0776 115.337 43.0776C114.657 43.0776 114.186 43.3656 114.186 43.9156C114.186 44.3607 114.5 44.5702 115.075 44.675L115.834 44.8321C116.855 45.0416 117.43 45.4606 117.43 46.2985C117.43 47.3198 116.593 47.9745 115.363 47.9745C114.055 47.9745 113.165 47.2674 113.061 46.089H113.898C114.002 46.7699 114.552 47.1889 115.389 47.1889C116.096 47.1889 116.541 46.9008 116.541 46.3771C116.541 46.0367 116.331 45.7486 115.703 45.6439L114.761 45.4606C113.741 45.2773 113.296 44.7535 113.296 43.9417C113.296 42.9467 114.081 42.292 115.285 42.292C116.279 42.3444 117.325 42.7634 117.456 44.0203Z" fill="white"/>
<path d="M125.122 43.2348H123.212V47.896H122.375V43.2348H120.465V42.4492H125.148L125.122 43.2348Z" fill="white"/>
<path d="M131.35 46.5865H128.707L128.158 47.8958H127.242L129.623 42.4229H130.434L132.815 47.8958H131.9L131.35 46.5865ZM131.01 45.8271L130.016 43.4703L129.021 45.8271H131.01Z" fill="white"/>
<path d="M139.644 43.2348H137.734V47.896H136.896V43.2348H134.986V42.4492H139.67L139.644 43.2348Z" fill="white"/>
<path d="M143.805 43.2346V44.8058H146.5V45.5914H143.805V47.0841H146.814V47.8958H142.941V42.4229H146.814V43.2084L143.805 43.2346Z" fill="white"/>
<path d="M155.945 42.4492V47.9222H155.082V42.4492H155.945Z" fill="white"/>
<path d="M164.502 42.4492V47.9222H163.821L160.629 44.0728V47.9222H159.766V42.4492H160.42L163.638 46.3772V42.4492H164.502Z" fill="white"/>
<path d="M173.556 42.4492L171.096 47.9484H170.311L167.852 42.4492H168.794L170.704 46.77L172.64 42.4492H173.556Z" fill="white"/>
<path d="M177.74 43.2346V44.8058H180.435V45.5914H177.74V47.0841H180.749V47.8958H176.877V42.4229H180.749V43.2084L177.74 43.2346Z" fill="white"/>
<path d="M188.39 44.0203H187.553C187.448 43.4442 187.055 43.0776 186.271 43.0776C185.59 43.0776 185.119 43.3656 185.119 43.9156C185.119 44.3607 185.433 44.5702 186.009 44.675L186.768 44.8321C187.788 45.0416 188.364 45.4606 188.364 46.2985C188.364 47.3198 187.526 47.9745 186.297 47.9745C184.988 47.9745 184.099 47.2674 183.994 46.089H184.831C184.936 46.7699 185.486 47.1889 186.323 47.1889C187.029 47.1889 187.474 46.9008 187.474 46.3771C187.474 46.0367 187.265 45.7486 186.637 45.6439L185.695 45.4606C184.674 45.2773 184.23 44.7535 184.23 43.9417C184.23 42.9467 185.015 42.292 186.218 42.292C187.212 42.3444 188.259 42.7634 188.39 44.0203Z" fill="white"/>
<path d="M196.057 43.2348H194.147V47.896H193.283V43.2348H191.373V42.4492H196.057V43.2348Z" fill="white"/>
<path d="M204.822 47.9222H203.985V44.3608L202.389 47.0057H201.866L200.244 44.3346L200.27 47.9222H199.406V42.4492H200.034L202.127 45.932L204.221 42.4492H204.849L204.822 47.9222Z" fill="white"/>
<path d="M209.506 43.2346V44.8058H212.201V45.5914H209.506V47.0841H212.515V47.8958H208.643V42.4229H212.515V43.2084L209.506 43.2346Z" fill="white"/>
<path d="M220.861 42.4492V47.9222H220.181L216.988 44.0728V47.9222H216.125V42.4492H216.779L219.997 46.3772V42.4492H220.861Z" fill="white"/>
<path d="M228.868 43.2348H226.958V47.896H226.121V43.2348H224.211V42.4492H228.895L228.868 43.2348Z" fill="white"/>
<path d="M236.142 44.0203H235.305C235.2 43.4442 234.807 43.0776 234.022 43.0776C233.342 43.0776 232.871 43.3656 232.871 43.9156C232.871 44.3607 233.185 44.5702 233.761 44.675L234.52 44.8321C235.54 45.0416 236.116 45.4606 236.116 46.2985C236.116 47.3198 235.278 47.9745 234.049 47.9745C232.74 47.9745 231.851 47.2674 231.746 46.089H232.583C232.688 46.7699 233.238 47.1889 234.075 47.1889C234.781 47.1889 235.226 46.9008 235.226 46.3771C235.226 46.0367 235.017 45.7486 234.389 45.6439L233.447 45.4606C232.426 45.2773 231.982 44.7535 231.982 43.9417C231.982 42.9467 232.767 42.292 233.97 42.292C234.991 42.3444 236.037 42.7634 236.142 44.0203Z" fill="white"/>
</g>
<defs>
<clipPath id="clip0_908_379">
<rect width="247" height="48" fill="white"/>
</clipPath>
</defs>
</svg>
