<svg xmlns="http://www.w3.org/2000/svg" xmlns:xlink="http://www.w3.org/1999/xlink" id="Calque_1" x="0" y="0" version="1.1" viewBox="0 0 85 109.3" style="enable-background:new 0 0 85 109.3" xml:space="preserve"><path fill="#fff" d="M1,91.3L30.1,108l54-31.6l0-58.7L55,1.1L1,32.7V91.3z" class="st0"/><g><path d="M30.1,109.1c-0.1,0-0.2,0-0.2-0.1L0.2,92C0.1,92,0,91.8,0,91.6V32.4C0,32.2,0.1,32,0.2,32L54.7,0.1c0.2-0.1,0.3-0.1,0.5,0 l29.6,17c0.2,0.1,0.2,0.3,0.2,0.4l0,59.2c0,0.2-0.1,0.3-0.2,0.4L30.3,109C30.2,109,30.1,109.1,30.1,109.1z M1,91.3L30.1,108 l54-31.6l0-58.7L55,1.1L1,32.7V91.3z"/><path d="M40.5,62.3c0,0.4-0.3,0.7-0.7,0.7h-1.5c-0.2,0-0.3-0.1-0.5-0.2c-0.2-0.2-0.5-0.5-0.9-0.5c-1,0-1.3,1.1-3.6,1.1 c-3.8,0-6.5-2.5-6.5-6.5V46.6c0-0.4,0.3-0.7,0.7-0.7h1.7c0.4,0,0.7,0.3,0.7,0.7v10.2c0,2.2,1.6,3.4,3.7,3.4s3.7-1.3,3.7-3.2V46.6 c0-0.4,0.3-0.7,0.7-0.7h1.7c0.4,0,0.7,0.3,0.7,0.7V62.3z"/><path d="M58.2,62.3c0,0.4-0.3,0.7-0.7,0.7h-1.7c-0.4,0-0.7-0.3-0.7-0.7V52c0-2-1.4-3.4-3.7-3.4c-2.1,0-3.7,1.3-3.7,3.2v10.4 c0,0.4-0.3,0.7-0.7,0.7h-1.7c-0.4,0-0.7-0.3-0.7-0.7V46.6c0-0.4,0.3-0.7,0.7-0.7h1.5c0.2,0,0.3,0.1,0.5,0.2 c0.2,0.2,0.5,0.5,0.9,0.5c1,0,1.1-1.1,3.6-1.1c3.8,0,6.5,2.7,6.5,6.5V62.3z"/><path d="M74.4,45.9h-1.2c-0.2,0-0.3,0.1-0.5,0.2c-0.2,0.2-0.5,0.5-0.9,0.5c-1,0-1.3-1.1-3.8-1.1c-3.6,0-6.2,2.9-6.5,6.5 c-0.1,1.4-0.1,3.4,0,4.8c0.3,3.6,2.9,6.5,6.5,6.5c1.6,0,2.5-0.9,3.2-0.9c0.5,0,0.8,0.2,0.8,0.9v6c0,0.4,0.3,0.7,0.7,0.7h1.7 c0.4,0,0.7-0.3,0.7-0.7V46.6C75.1,46.2,74.8,45.9,74.4,45.9z M72.3,56.8c-0.1,1.8-1.6,3.4-3.9,3.4c-2.4,0-3.8-1.6-3.9-3.4 c-0.1-1.4-0.1-3.4,0-4.8c0.1-1.8,1.6-3.4,3.9-3.4c2.4,0,3.8,1.6,3.9,3.4C72.4,53.4,72.4,55.4,72.3,56.8z"/><path d="M23.4,52c-0.3-3.6-2.9-6.5-6.5-6.5c-1.6,0-2.5,0.9-3.2,0.9c-0.5,0-0.7-0.2-0.7-0.9v-5.8c0-0.4-0.3-0.7-0.7-0.7h-1.7 c-0.4,0-0.7,0.3-0.7,0.7v22.5c0,0.4,0.3,0.7,0.7,0.7h1.2c0.2,0,0.3-0.1,0.5-0.2c0.2-0.2,0.5-0.5,0.9-0.5c1,0,1.3,1.1,3.8,1.1 c3.6,0,6.2-2.9,6.5-6.5C23.5,55.4,23.5,53.4,23.4,52z M20.5,56.8c-0.1,1.8-1.6,3.4-3.9,3.4c-2.4,0-3.8-1.6-3.9-3.4 c-0.1-1.4-0.1-3.4,0-4.8c0.1-1.8,1.6-3.4,3.9-3.4c2.4,0,3.8,1.6,3.9,3.4C20.6,53.4,20.6,55.4,20.5,56.8z"/></g></svg>