<?xml version="1.0" encoding="utf-8"?>
<!-- Generator: Adobe Illustrator 23.0.1, SVG Export Plug-In . SVG Version: 6.00 Build 0)  -->
<svg version="1.1" id="ION_White_RGB" xmlns="http://www.w3.org/2000/svg" xmlns:xlink="http://www.w3.org/1999/xlink" x="0px"
	 y="0px" viewBox="0 0 1615 500" style="enable-background:new 0 0 1615 500;" xml:space="preserve">
<style type="text/css">
	.st0{fill:#FFFFFF;}
</style>
<g>
	<path class="st0" d="M702.5,160h-75c-15.19,0-27.5,12.31-27.5,27.5v125c0,15.19,12.31,27.5,27.5,27.5h75
		c15.19,0,27.5-12.31,27.5-27.5v-125C730,172.31,717.69,160,702.5,160z"/>
	<path class="st0" d="M1560,0H55C24.62,0,0,24.62,0,55v390c0,30.38,24.62,55,55,55h1505c30.38,0,55-24.62,55-55V55
		C1615,24.62,1590.38,0,1560,0z M325,375c0,24.85-20.15,45-45,45H170c-24.85,0-45-20.15-45-45V125c0-24.85,20.15-45,45-45h110
		c24.85,0,45,20.15,45,45V375z M910,375c0,24.85-20.15,45-45,45H465c-24.85,0-45-20.15-45-45V125c0-24.85,20.15-45,45-45h400
		c24.85,0,45,20.15,45,45V375z M1490,375c0,24.85-20.15,45-45,45h-95c-24.85,0-45-20.15-45-45V192.5c0-15.19-12.31-27.5-27.5-27.5
		h-60c-15.19,0-27.5,12.31-27.5,27.5V375c0,24.75-20.25,45-45,45h-95c-24.85,0-45-20.15-45-45V125c0-24.85,20.15-45,45-45h395
		c24.85,0,45,20.15,45,45V375z"/>
</g>
<g>
	<path d="M280,80H170c-24.85,0-45,20.15-45,45v250c0,24.85,20.15,45,45,45h110c24.85,0,45-20.15,45-45V125
		C325,100.15,304.85,80,280,80z"/>
	<path d="M865,80H465c-24.85,0-45,20.15-45,45v250c0,24.85,20.15,45,45,45h400c24.85,0,45-20.15,45-45V125
		C910,100.15,889.85,80,865,80z M730,312.5c0,15.19-12.31,27.5-27.5,27.5h-75c-15.19,0-27.5-12.31-27.5-27.5v-125
		c0-15.19,12.31-27.5,27.5-27.5h75c15.19,0,27.5,12.31,27.5,27.5V312.5z"/>
	<path d="M1445,80h-395c-24.85,0-45,20.15-45,45v250c0,24.85,20.15,45,45,45h95c24.75,0,45-20.25,45-45V192.5
		c0-15.19,12.31-27.5,27.5-27.5h60c15.19,0,27.5,12.31,27.5,27.5V375c0,24.85,20.15,45,45,45h95c24.85,0,45-20.15,45-45V125
		C1490,100.15,1469.85,80,1445,80z"/>
</g>
</svg>
